<?xml version="1.0" encoding="utf-8" standalone="no"?>
<!DOCTYPE svg PUBLIC "-//W3C//DTD SVG 1.1//EN"
  "http://www.w3.org/Graphics/SVG/1.1/DTD/svg11.dtd">
<!-- Created with matplotlib (https://matplotlib.org/) -->
<svg height="288pt" version="1.1" viewBox="0 0 432 288" width="432pt" xmlns="http://www.w3.org/2000/svg" xmlns:xlink="http://www.w3.org/1999/xlink">
 <metadata>
  <rdf:RDF xmlns:cc="http://creativecommons.org/ns#" xmlns:dc="http://purl.org/dc/elements/1.1/" xmlns:rdf="http://www.w3.org/1999/02/22-rdf-syntax-ns#">
   <cc:Work>
    <dc:type rdf:resource="http://purl.org/dc/dcmitype/StillImage"/>
    <dc:date>2021-09-23T23:07:41.014361</dc:date>
    <dc:format>image/svg+xml</dc:format>
    <dc:creator>
     <cc:Agent>
      <dc:title>Matplotlib v3.3.3, https://matplotlib.org/</dc:title>
     </cc:Agent>
    </dc:creator>
   </cc:Work>
  </rdf:RDF>
 </metadata>
 <defs>
  <style type="text/css">*{stroke-linecap:butt;stroke-linejoin:round;}</style>
 </defs>
 <g id="figure_1">
  <g id="patch_1">
   <path d="M 0 288 
L 432 288 
L 432 0 
L 0 0 
z
" style="fill:#ffffff;"/>
  </g>
  <g id="axes_1">
   <g id="patch_2">
    <path d="M 54 252 
L 388.8 252 
L 388.8 34.56 
L 54 34.56 
z
" style="fill:#ffffff;"/>
   </g>
   <g id="matplotlib.axis_1">
    <g id="xtick_1">
     <g id="line2d_1">
      <path clip-path="url(#p98c26491a4)" d="M 54 252 
L 54 34.56 
" style="fill:none;stroke:#b0b0b0;stroke-linecap:square;stroke-width:0.8;"/>
     </g>
     <g id="line2d_2">
      <defs>
       <path d="M 0 0 
L 0 3.5 
" id="mca434ee697" style="stroke:#000000;stroke-width:0.8;"/>
      </defs>
      <g>
       <use style="stroke:#000000;stroke-width:0.8;" x="54" xlink:href="#mca434ee697" y="252"/>
      </g>
     </g>
     <g id="text_1">
      <!-- $\mathdefault{0.0}$ -->
      <g transform="translate(47.634961 265.918498)scale(0.1 -0.1)">
       <defs>
        <path d="M 42 31.640625 
C 42 37.75 41.90625 48.125 37.703125 56.109375 
C 34 63.109375 28.09375 65.59375 22.90625 65.59375 
C 18.09375 65.59375 12 63.40625 8.203125 56.203125 
C 4.203125 48.71875 3.796875 39.4375 3.796875 31.640625 
C 3.796875 25.953125 3.90625 17.28125 7 9.671875 
C 11.296875 -0.609375 19 -2 22.90625 -2 
C 27.5 -2 34.5 -0.109375 38.59375 9.375 
C 41.59375 16.28125 42 24.359375 42 31.640625 
z
M 22.90625 -0.40625 
C 16.5 -0.40625 12.703125 5.078125 11.296875 12.6875 
C 10.203125 18.5625 10.203125 27.15625 10.203125 32.75 
C 10.203125 40.4375 10.203125 46.828125 11.5 52.921875 
C 13.40625 61.390625 19 64 22.90625 64 
C 27 64 32.296875 61.296875 34.203125 53.125 
C 35.5 47.4375 35.59375 40.734375 35.59375 32.75 
C 35.59375 26.25 35.59375 18.265625 34.40625 12.375 
C 32.296875 1.484375 26.40625 -0.40625 22.90625 -0.40625 
z
" id="CMR17-48"/>
        <path d="M 18.40625 4.796875 
C 18.40625 7.6875 16 9.671875 13.59375 9.671875 
C 10.703125 9.671875 8.703125 7.28125 8.703125 4.890625 
C 8.703125 2 11.09375 0 13.5 0 
C 16.40625 0 18.40625 2.390625 18.40625 4.796875 
z
" id="CMMI12-58"/>
       </defs>
       <use transform="scale(0.996264)" xlink:href="#CMR17-48"/>
       <use transform="translate(45.690477 0)scale(0.996264)" xlink:href="#CMMI12-58"/>
       <use transform="translate(72.787654 0)scale(0.996264)" xlink:href="#CMR17-48"/>
      </g>
     </g>
    </g>
    <g id="xtick_2">
     <g id="line2d_3">
      <path clip-path="url(#p98c26491a4)" d="M 96.62806 252 
L 96.62806 34.56 
" style="fill:none;stroke:#b0b0b0;stroke-linecap:square;stroke-width:0.8;"/>
     </g>
     <g id="line2d_4">
      <g>
       <use style="stroke:#000000;stroke-width:0.8;" x="96.62806" xlink:href="#mca434ee697" y="252"/>
      </g>
     </g>
     <g id="text_2">
      <!-- $\mathdefault{0.2}$ -->
      <g transform="translate(90.26302 265.918498)scale(0.1 -0.1)">
       <defs>
        <path d="M 41.703125 15.453125 
L 39.90625 15.453125 
C 38.90625 8.375 38.09375 7.171875 37.703125 6.5625 
C 37.203125 5.765625 30 5.765625 28.59375 5.765625 
L 9.40625 5.765625 
C 13 9.671875 20 16.75 28.5 24.953125 
C 34.59375 30.734375 41.703125 37.53125 41.703125 47.421875 
C 41.703125 59.21875 32.296875 66 21.796875 66 
C 10.796875 66 4.09375 56.3125 4.09375 47.34375 
C 4.09375 43.4375 7 42.9375 8.203125 42.9375 
C 9.203125 42.9375 12.203125 43.546875 12.203125 47.03125 
C 12.203125 50.109375 9.59375 51 8.203125 51 
C 7.59375 51 7 50.90625 6.59375 50.703125 
C 8.5 59.21875 14.296875 63.40625 20.40625 63.40625 
C 29.09375 63.40625 34.796875 56.515625 34.796875 47.421875 
C 34.796875 38.734375 29.703125 31.25 24 24.75 
L 4.09375 2.28125 
L 4.09375 0 
L 39.296875 0 
z
" id="CMR17-50"/>
       </defs>
       <use transform="scale(0.996264)" xlink:href="#CMR17-48"/>
       <use transform="translate(45.690477 0)scale(0.996264)" xlink:href="#CMMI12-58"/>
       <use transform="translate(72.787654 0)scale(0.996264)" xlink:href="#CMR17-50"/>
      </g>
     </g>
    </g>
    <g id="xtick_3">
     <g id="line2d_5">
      <path clip-path="url(#p98c26491a4)" d="M 139.25612 252 
L 139.25612 34.56 
" style="fill:none;stroke:#b0b0b0;stroke-linecap:square;stroke-width:0.8;"/>
     </g>
     <g id="line2d_6">
      <g>
       <use style="stroke:#000000;stroke-width:0.8;" x="139.25612" xlink:href="#mca434ee697" y="252"/>
      </g>
     </g>
     <g id="text_3">
      <!-- $\mathdefault{0.4}$ -->
      <g transform="translate(132.89108 265.918498)scale(0.1 -0.1)">
       <defs>
        <path d="M 33.59375 64.40625 
C 33.59375 66.5 33.5 66.5 31.703125 66.5 
L 2 19.59375 
L 2 17 
L 27.796875 17 
L 27.796875 7.140625 
C 27.796875 3.5 27.59375 2.5 20.59375 2.5 
L 18.703125 2.5 
L 18.703125 0 
C 21.90625 0 27.296875 0 30.703125 0 
C 34.09375 0 39.5 0 42.703125 0 
L 42.703125 2.5 
L 40.796875 2.5 
C 33.796875 2.5 33.59375 3.5 33.59375 7.140625 
L 33.59375 17 
L 43.796875 17 
L 43.796875 19.59375 
L 33.59375 19.59375 
z
M 28.09375 57.859375 
L 28.09375 19.59375 
L 4 19.59375 
z
" id="CMR17-52"/>
       </defs>
       <use transform="scale(0.996264)" xlink:href="#CMR17-48"/>
       <use transform="translate(45.690477 0)scale(0.996264)" xlink:href="#CMMI12-58"/>
       <use transform="translate(72.787654 0)scale(0.996264)" xlink:href="#CMR17-52"/>
      </g>
     </g>
    </g>
    <g id="xtick_4">
     <g id="line2d_7">
      <path clip-path="url(#p98c26491a4)" d="M 181.88418 252 
L 181.88418 34.56 
" style="fill:none;stroke:#b0b0b0;stroke-linecap:square;stroke-width:0.8;"/>
     </g>
     <g id="line2d_8">
      <g>
       <use style="stroke:#000000;stroke-width:0.8;" x="181.88418" xlink:href="#mca434ee697" y="252"/>
      </g>
     </g>
     <g id="text_4">
      <!-- $\mathdefault{0.6}$ -->
      <g transform="translate(175.51914 265.918498)scale(0.1 -0.1)">
       <defs>
        <path d="M 10.59375 34 
C 10.59375 57.65625 21.796875 63 28.296875 63 
C 30.40625 63 35.5 62.640625 37.5 59 
C 35.90625 59 32.90625 59 32.90625 55.515625 
C 32.90625 52.828125 35.09375 51.921875 36.5 51.921875 
C 37.40625 51.921875 40.09375 52.3125 40.09375 55.625 
C 40.09375 61.78125 35.09375 65.296875 28.203125 65.296875 
C 16.296875 65.296875 3.796875 52.96875 3.796875 31 
C 3.796875 3.953125 15.09375 -2 23.09375 -2 
C 32.796875 -2 42 6.671875 42 20.046875 
C 42 32.515625 33.90625 41.59375 23.703125 41.59375 
C 17.59375 41.59375 13.09375 37.609375 10.59375 30.625 
z
M 23.09375 0.390625 
C 10.796875 0.390625 10.796875 18.75 10.796875 22.4375 
C 10.796875 29.625 14.203125 40 23.5 40 
C 25.203125 40 30.09375 40 33.40625 33.125 
C 35.203125 29.21875 35.203125 25.140625 35.203125 20.140625 
C 35.203125 14.75 35.203125 10.78125 33.09375 6.78125 
C 30.90625 2.671875 27.703125 0.390625 23.09375 0.390625 
z
" id="CMR17-54"/>
       </defs>
       <use transform="scale(0.996264)" xlink:href="#CMR17-48"/>
       <use transform="translate(45.690477 0)scale(0.996264)" xlink:href="#CMMI12-58"/>
       <use transform="translate(72.787654 0)scale(0.996264)" xlink:href="#CMR17-54"/>
      </g>
     </g>
    </g>
    <g id="xtick_5">
     <g id="line2d_9">
      <path clip-path="url(#p98c26491a4)" d="M 224.51224 252 
L 224.51224 34.56 
" style="fill:none;stroke:#b0b0b0;stroke-linecap:square;stroke-width:0.8;"/>
     </g>
     <g id="line2d_10">
      <g>
       <use style="stroke:#000000;stroke-width:0.8;" x="224.51224" xlink:href="#mca434ee697" y="252"/>
      </g>
     </g>
     <g id="text_5">
      <!-- $\mathdefault{0.8}$ -->
      <g transform="translate(218.1472 265.918498)scale(0.1 -0.1)">
       <defs>
        <path d="M 27.203125 35.375 
C 33.5 38.546875 39.90625 43.328125 39.90625 50.984375 
C 39.90625 60.015625 31.09375 65.296875 23 65.296875 
C 13.90625 65.296875 5.90625 58.734375 5.90625 49.6875 
C 5.90625 47.203125 6.5 42.921875 10.40625 39.140625 
C 11.40625 38.15625 15.59375 35.171875 18.296875 33.28125 
C 13.796875 30.984375 3.296875 25.53125 3.296875 14.59375 
C 3.296875 4.359375 13.09375 -2 22.796875 -2 
C 33.5 -2 42.5 5.65625 42.5 15.78125 
C 42.5 24.84375 36.40625 29.015625 32.40625 31.703125 
z
M 14.09375 44.09375 
C 13.296875 44.59375 9.296875 47.671875 9.296875 52.359375 
C 9.296875 58.421875 15.59375 63 22.796875 63 
C 30.703125 63 36.5 57.4375 36.5 50.96875 
C 36.5 41.703125 26.09375 36.421875 25.59375 36.421875 
C 25.5 36.421875 25.40625 36.421875 24.59375 37.03125 
z
M 32.5 23.734375 
C 34 22.640625 38.796875 19.375 38.796875 13.296875 
C 38.796875 5.953125 31.40625 0.390625 23 0.390625 
C 13.90625 0.390625 7 6.84375 7 14.6875 
C 7 22.546875 13.09375 29.09375 20 32.1875 
z
" id="CMR17-56"/>
       </defs>
       <use transform="scale(0.996264)" xlink:href="#CMR17-48"/>
       <use transform="translate(45.690477 0)scale(0.996264)" xlink:href="#CMMI12-58"/>
       <use transform="translate(72.787654 0)scale(0.996264)" xlink:href="#CMR17-56"/>
      </g>
     </g>
    </g>
    <g id="xtick_6">
     <g id="line2d_11">
      <path clip-path="url(#p98c26491a4)" d="M 267.1403 252 
L 267.1403 34.56 
" style="fill:none;stroke:#b0b0b0;stroke-linecap:square;stroke-width:0.8;"/>
     </g>
     <g id="line2d_12">
      <g>
       <use style="stroke:#000000;stroke-width:0.8;" x="267.1403" xlink:href="#mca434ee697" y="252"/>
      </g>
     </g>
     <g id="text_6">
      <!-- $\mathdefault{1.0}$ -->
      <g transform="translate(260.77526 265.918498)scale(0.1 -0.1)">
       <defs>
        <path d="M 26.59375 63.40625 
C 26.59375 65.5 26.5 65.5 25.09375 65.5 
C 21.203125 61.1875 15.296875 59.796875 9.703125 59.796875 
C 9.40625 59.796875 8.90625 59.796875 8.796875 59.5 
C 8.703125 59.296875 8.703125 59.09375 8.703125 57 
C 11.796875 57 17 57.59375 21 59.984375 
L 21 7.203125 
C 21 3.6875 20.796875 2.5 12.203125 2.5 
L 9.203125 2.5 
L 9.203125 0 
C 14 0 19 0 23.796875 0 
C 28.59375 0 33.59375 0 38.40625 0 
L 38.40625 2.5 
L 35.40625 2.5 
C 26.796875 2.5 26.59375 3.59375 26.59375 7.15625 
z
" id="CMR17-49"/>
       </defs>
       <use transform="scale(0.996264)" xlink:href="#CMR17-49"/>
       <use transform="translate(45.690477 0)scale(0.996264)" xlink:href="#CMMI12-58"/>
       <use transform="translate(72.787654 0)scale(0.996264)" xlink:href="#CMR17-48"/>
      </g>
     </g>
    </g>
    <g id="xtick_7">
     <g id="line2d_13">
      <path clip-path="url(#p98c26491a4)" d="M 309.76836 252 
L 309.76836 34.56 
" style="fill:none;stroke:#b0b0b0;stroke-linecap:square;stroke-width:0.8;"/>
     </g>
     <g id="line2d_14">
      <g>
       <use style="stroke:#000000;stroke-width:0.8;" x="309.76836" xlink:href="#mca434ee697" y="252"/>
      </g>
     </g>
     <g id="text_7">
      <!-- $\mathdefault{1.2}$ -->
      <g transform="translate(303.40332 265.918498)scale(0.1 -0.1)">
       <use transform="scale(0.996264)" xlink:href="#CMR17-49"/>
       <use transform="translate(45.690477 0)scale(0.996264)" xlink:href="#CMMI12-58"/>
       <use transform="translate(72.787654 0)scale(0.996264)" xlink:href="#CMR17-50"/>
      </g>
     </g>
    </g>
    <g id="xtick_8">
     <g id="line2d_15">
      <path clip-path="url(#p98c26491a4)" d="M 352.39642 252 
L 352.39642 34.56 
" style="fill:none;stroke:#b0b0b0;stroke-linecap:square;stroke-width:0.8;"/>
     </g>
     <g id="line2d_16">
      <g>
       <use style="stroke:#000000;stroke-width:0.8;" x="352.39642" xlink:href="#mca434ee697" y="252"/>
      </g>
     </g>
     <g id="text_8">
      <!-- $\mathdefault{1.4}$ -->
      <g transform="translate(346.03138 265.918498)scale(0.1 -0.1)">
       <use transform="scale(0.996264)" xlink:href="#CMR17-49"/>
       <use transform="translate(45.690477 0)scale(0.996264)" xlink:href="#CMMI12-58"/>
       <use transform="translate(72.787654 0)scale(0.996264)" xlink:href="#CMR17-52"/>
      </g>
     </g>
    </g>
    <g id="text_9">
     <!-- $\theta$ -->
     <g transform="translate(219.061548 278.774175)scale(0.1 -0.1)">
      <defs>
       <path d="M 44.296875 50 
C 44.296875 60.15625 41.09375 70 32.90625 70 
C 18.90625 70 4 40.859375 4 19 
C 4 14.421875 5 -1 15.5 -1 
C 29.09375 -1 44.296875 27.4375 44.296875 50 
z
M 14 36 
C 15.5 41.859375 17.59375 50.21875 21.59375 57.265625 
C 24.90625 63.234375 28.40625 68 32.796875 68 
C 36.09375 68 38.296875 65.21875 38.296875 55.6875 
C 38.296875 52.09375 38 47.140625 35.09375 36 
z
M 34.40625 33.015625 
C 31.90625 23.28125 29.796875 17 26.203125 10.734375 
C 23.296875 5.671875 19.796875 1 15.59375 1 
C 12.5 1 10 3.390625 10 13.21875 
C 10 19.6875 11.59375 26.453125 13.203125 33.015625 
z
" id="CMMI12-18"/>
      </defs>
      <use transform="scale(0.996264)" xlink:href="#CMMI12-18"/>
     </g>
    </g>
   </g>
   <g id="matplotlib.axis_2">
    <g id="ytick_1">
     <g id="line2d_17">
      <path clip-path="url(#p98c26491a4)" d="M 54 242.116364 
L 388.8 242.116364 
" style="fill:none;stroke:#b0b0b0;stroke-linecap:square;stroke-width:0.8;"/>
     </g>
     <g id="line2d_18">
      <defs>
       <path d="M 0 0 
L -3.5 0 
" id="me9ca397d40" style="stroke:#000000;stroke-width:0.8;"/>
      </defs>
      <g>
       <use style="stroke:#000000;stroke-width:0.8;" x="54" xlink:href="#me9ca397d40" y="242.116364"/>
      </g>
     </g>
     <g id="text_10">
      <!-- $\mathdefault{0}$ -->
      <g transform="translate(42.018665 245.575613)scale(0.1 -0.1)">
       <use transform="scale(0.996264)" xlink:href="#CMR17-48"/>
      </g>
     </g>
    </g>
    <g id="ytick_2">
     <g id="line2d_19">
      <path clip-path="url(#p98c26491a4)" d="M 54 215.951781 
L 388.8 215.951781 
" style="fill:none;stroke:#b0b0b0;stroke-linecap:square;stroke-width:0.8;"/>
     </g>
     <g id="line2d_20">
      <g>
       <use style="stroke:#000000;stroke-width:0.8;" x="54" xlink:href="#me9ca397d40" y="215.951781"/>
      </g>
     </g>
     <g id="text_11">
      <!-- $\mathdefault{1}$ -->
      <g transform="translate(42.018665 219.411031)scale(0.1 -0.1)">
       <use transform="scale(0.996264)" xlink:href="#CMR17-49"/>
      </g>
     </g>
    </g>
    <g id="ytick_3">
     <g id="line2d_21">
      <path clip-path="url(#p98c26491a4)" d="M 54 189.787199 
L 388.8 189.787199 
" style="fill:none;stroke:#b0b0b0;stroke-linecap:square;stroke-width:0.8;"/>
     </g>
     <g id="line2d_22">
      <g>
       <use style="stroke:#000000;stroke-width:0.8;" x="54" xlink:href="#me9ca397d40" y="189.787199"/>
      </g>
     </g>
     <g id="text_12">
      <!-- $\mathdefault{2}$ -->
      <g transform="translate(42.018665 193.246448)scale(0.1 -0.1)">
       <use transform="scale(0.996264)" xlink:href="#CMR17-50"/>
      </g>
     </g>
    </g>
    <g id="ytick_4">
     <g id="line2d_23">
      <path clip-path="url(#p98c26491a4)" d="M 54 163.622617 
L 388.8 163.622617 
" style="fill:none;stroke:#b0b0b0;stroke-linecap:square;stroke-width:0.8;"/>
     </g>
     <g id="line2d_24">
      <g>
       <use style="stroke:#000000;stroke-width:0.8;" x="54" xlink:href="#me9ca397d40" y="163.622617"/>
      </g>
     </g>
     <g id="text_13">
      <!-- $\mathdefault{3}$ -->
      <g transform="translate(42.018665 167.081866)scale(0.1 -0.1)">
       <defs>
        <path d="M 22.09375 33.703125 
C 31 33.703125 34.90625 25.96875 34.90625 17.03125 
C 34.90625 5 28.5 0.390625 22.703125 0.390625 
C 17.40625 0.390625 8.796875 3.03125 6.09375 10.828125 
C 6.59375 10.625 7.09375 10.625 7.59375 10.625 
C 10 10.625 11.796875 12.21875 11.796875 14.8125 
C 11.796875 17.703125 9.59375 19 7.59375 19 
C 5.90625 19 3.296875 18.203125 3.296875 14.46875 
C 3.296875 5.234375 12.296875 -2 22.90625 -2 
C 34 -2 42.5 6.71875 42.5 16.953125 
C 42.5 26.671875 34.5 33.703125 25 34.796875 
C 32.59375 36.375 39.90625 43.0625 39.90625 52.015625 
C 39.90625 59.6875 32 65.296875 23 65.296875 
C 13.90625 65.296875 5.90625 59.828125 5.90625 52.015625 
C 5.90625 48.59375 8.5 48 9.796875 48 
C 11.90625 48 13.703125 49.296875 13.703125 51.890625 
C 13.703125 54.46875 11.90625 55.765625 9.796875 55.765625 
C 9.40625 55.765625 8.90625 55.765625 8.5 55.578125 
C 11.40625 61.859375 19.296875 63 22.796875 63 
C 26.296875 63 32.90625 61.328125 32.90625 51.875 
C 32.90625 49.109375 32.5 44.1875 29.09375 39.84375 
C 26.09375 36 22.703125 36 19.40625 35.6875 
C 18.90625 35.6875 16.59375 35.453125 16.203125 35.453125 
C 15.5 35.359375 15.09375 35.265625 15.09375 34.5 
C 15.09375 33.796875 15.203125 33.703125 17.203125 33.703125 
z
" id="CMR17-51"/>
       </defs>
       <use transform="scale(0.996264)" xlink:href="#CMR17-51"/>
      </g>
     </g>
    </g>
    <g id="ytick_5">
     <g id="line2d_25">
      <path clip-path="url(#p98c26491a4)" d="M 54 137.458034 
L 388.8 137.458034 
" style="fill:none;stroke:#b0b0b0;stroke-linecap:square;stroke-width:0.8;"/>
     </g>
     <g id="line2d_26">
      <g>
       <use style="stroke:#000000;stroke-width:0.8;" x="54" xlink:href="#me9ca397d40" y="137.458034"/>
      </g>
     </g>
     <g id="text_14">
      <!-- $\mathdefault{4}$ -->
      <g transform="translate(42.018665 140.917284)scale(0.1 -0.1)">
       <use transform="scale(0.996264)" xlink:href="#CMR17-52"/>
      </g>
     </g>
    </g>
    <g id="ytick_6">
     <g id="line2d_27">
      <path clip-path="url(#p98c26491a4)" d="M 54 111.293452 
L 388.8 111.293452 
" style="fill:none;stroke:#b0b0b0;stroke-linecap:square;stroke-width:0.8;"/>
     </g>
     <g id="line2d_28">
      <g>
       <use style="stroke:#000000;stroke-width:0.8;" x="54" xlink:href="#me9ca397d40" y="111.293452"/>
      </g>
     </g>
     <g id="text_15">
      <!-- $\mathdefault{5}$ -->
      <g transform="translate(42.018665 114.752701)scale(0.1 -0.1)">
       <defs>
        <path d="M 11.40625 57.6875 
C 12.40625 57.28125 16.5 56 20.703125 56 
C 30 56 35.09375 61.109375 38 64.0625 
C 38 64.953125 38 65.5 37.40625 65.5 
C 37.296875 65.5 37.09375 65.5 36.296875 65.046875 
C 32.796875 63.40625 28.703125 62.078125 23.703125 62.078125 
C 20.703125 62.078125 16.203125 62.484375 11.296875 64.671875 
C 10.203125 65.171875 10 65.171875 9.90625 65.171875 
C 9.40625 65.171875 9.296875 65.0625 9.296875 63.078125 
L 9.296875 34.421875 
C 9.296875 32.640625 9.296875 32.140625 10.296875 32.140625 
C 10.796875 32.140625 11 32.34375 11.5 33.03125 
C 14.703125 37.515625 19.09375 39.40625 24.09375 39.40625 
C 27.59375 39.40625 35.09375 37.21875 35.09375 20.140625 
C 35.09375 16.953125 35.09375 11.171875 32.09375 6.578125 
C 29.59375 2.484375 25.703125 0.390625 21.40625 0.390625 
C 14.796875 0.390625 8.09375 5 6.296875 12.71875 
C 6.703125 12.609375 7.5 12.421875 7.90625 12.421875 
C 9.203125 12.421875 11.703125 13.125 11.703125 16.21875 
C 11.703125 18.90625 9.796875 20 7.90625 20 
C 5.59375 20 4.09375 18.59375 4.09375 15.796875 
C 4.09375 7.09375 11 -2 21.59375 -2 
C 31.90625 -2 41.703125 6.875 41.703125 19.75 
C 41.703125 31.71875 33.90625 41 24.203125 41 
C 19.09375 41 14.796875 39.109375 11.40625 35.53125 
z
" id="CMR17-53"/>
       </defs>
       <use transform="scale(0.996264)" xlink:href="#CMR17-53"/>
      </g>
     </g>
    </g>
    <g id="ytick_7">
     <g id="line2d_29">
      <path clip-path="url(#p98c26491a4)" d="M 54 85.12887 
L 388.8 85.12887 
" style="fill:none;stroke:#b0b0b0;stroke-linecap:square;stroke-width:0.8;"/>
     </g>
     <g id="line2d_30">
      <g>
       <use style="stroke:#000000;stroke-width:0.8;" x="54" xlink:href="#me9ca397d40" y="85.12887"/>
      </g>
     </g>
     <g id="text_16">
      <!-- $\mathdefault{6}$ -->
      <g transform="translate(42.018665 88.588119)scale(0.1 -0.1)">
       <use transform="scale(0.996264)" xlink:href="#CMR17-54"/>
      </g>
     </g>
    </g>
    <g id="ytick_8">
     <g id="line2d_31">
      <path clip-path="url(#p98c26491a4)" d="M 54 58.964288 
L 388.8 58.964288 
" style="fill:none;stroke:#b0b0b0;stroke-linecap:square;stroke-width:0.8;"/>
     </g>
     <g id="line2d_32">
      <g>
       <use style="stroke:#000000;stroke-width:0.8;" x="54" xlink:href="#me9ca397d40" y="58.964288"/>
      </g>
     </g>
     <g id="text_17">
      <!-- $\mathdefault{7}$ -->
      <g transform="translate(42.018665 62.423537)scale(0.1 -0.1)">
       <defs>
        <path d="M 45.09375 61.578125 
L 45.09375 63.765625 
L 21.59375 63.765625 
C 9.90625 63.765625 9.703125 65.078125 9.296875 67 
L 7.5 67 
L 4.59375 48.34375 
L 6.40625 48.34375 
C 6.703125 50.234375 7.40625 55.3125 8.59375 57.203125 
C 9.203125 58 16.59375 58 18.296875 58 
L 40.296875 58 
L 29.203125 41.578125 
C 21.796875 30.53125 16.703125 15.609375 16.703125 2.578125 
C 16.703125 1.390625 16.703125 -2 20.296875 -2 
C 23.90625 -2 23.90625 1.390625 23.90625 2.671875 
L 23.90625 7.265625 
C 23.90625 23.5625 26.703125 34.3125 31.296875 41.1875 
z
" id="CMR17-55"/>
       </defs>
       <use transform="scale(0.996264)" xlink:href="#CMR17-55"/>
      </g>
     </g>
    </g>
    <g id="text_18">
     <!-- $h(\theta, R_z) \times R_z$ -->
     <g transform="translate(35.528005 172.566317)rotate(-90)scale(0.1 -0.1)">
      <defs>
       <path d="M 28.09375 66.515625 
C 28.203125 66.921875 28.40625 67.515625 28.40625 68 
C 28.40625 69 27.40625 69 27.203125 69 
C 27.09375 69 22.203125 68.5625 21.703125 68.4375 
C 20 68.328125 18.5 68.09375 16.703125 68.09375 
C 14.203125 67.890625 13.5 67.796875 13.5 66 
C 13.5 65 14.296875 65 15.703125 65 
C 20.59375 65 20.703125 64.109375 20.703125 63.125 
C 20.703125 62.53125 20.5 61.734375 20.40625 61.4375 
L 5.90625 3.875 
C 5.5 2.375 5.5 2.1875 5.5 1.578125 
C 5.5 -0.59375 7.203125 -1 8.203125 -1 
C 9.90625 -1 11.203125 0.296875 11.703125 1.390625 
L 16.203125 19.453125 
C 16.703125 21.65625 17.296875 23.75 17.796875 25.9375 
C 18.90625 30.140625 18.90625 30.234375 20.796875 33.125 
C 22.703125 36.015625 27.203125 42.015625 34.90625 42.015625 
C 38.90625 42.015625 40.296875 39.015625 40.296875 35.03125 
C 40.296875 29.4375 36.40625 18.5625 34.203125 12.578125 
C 33.296875 10.171875 32.796875 8.875 32.796875 7.078125 
C 32.796875 2.59375 35.90625 -1 40.703125 -1 
C 50 -1 53.5 13.671875 53.5 14.265625 
C 53.5 14.765625 53.09375 15.171875 52.5 15.171875 
C 51.59375 15.171875 51.5 14.875 51 13.171875 
C 48.703125 5.1875 45 1 41 1 
C 40 1 38.40625 1 38.40625 4.203125 
C 38.40625 6.8125 39.59375 10 40 11.09375 
C 41.796875 15.90625 46.296875 27.703125 46.296875 33.515625 
C 46.296875 39.5 42.796875 44 35.203125 44 
C 29.5 44 24.5 41.3125 20.40625 36.125 
z
" id="CMMI12-104"/>
       <path d="M 30.59375 -24.390625 
C 30.59375 -24.296875 30.59375 -24.09375 30.296875 -23.796875 
C 25.703125 -19.125 13.40625 -6.359375 13.40625 24.703125 
C 13.40625 55.765625 25.5 68.421875 30.40625 73.390625 
C 30.40625 73.5 30.59375 73.703125 30.59375 74 
C 30.59375 74.296875 30.296875 74.5 29.90625 74.5 
C 28.796875 74.5 20.296875 67.125 15.40625 56.15625 
C 10.40625 45.109375 9 34.359375 9 24.8125 
C 9 17.625 9.703125 5.484375 15.703125 -7.359375 
C 20.5 -17.734375 28.703125 -25 29.90625 -25 
C 30.40625 -25 30.59375 -24.796875 30.59375 -24.390625 
z
" id="CMR17-40"/>
       <path d="M 19.5 -0.484375 
C 19.5 5.359375 17.59375 9.671875 13.5 9.671875 
C 10.296875 9.671875 8.703125 7.078125 8.703125 4.890625 
C 8.703125 2.6875 10.203125 0 13.59375 0 
C 14.90625 0 16 0.40625 16.90625 1.296875 
C 17.09375 1.5 17.203125 1.5 17.296875 1.5 
C 17.5 1.5 17.5 0.078125 17.5 -0.421875 
C 17.5 -3.75 16.90625 -10.296875 11.09375 -16.875 
C 10 -18.078125 10 -18.28125 10 -18.484375 
C 10 -19 10.5 -19.5 11 -19.5 
C 11.796875 -19.5 19.5 -12.046875 19.5 -0.484375 
z
" id="CMMI12-59"/>
       <path d="M 36.796875 61.3125 
C 37.703125 65 38.09375 65 42 65 
L 49.203125 65 
C 57.796875 65 64.203125 62.421875 64.203125 54.671875 
C 64.203125 49.609375 61.59375 35 41.5 35 
L 30.203125 35 
z
M 50.703125 33.890625 
C 63.09375 36.578125 72.796875 44.546875 72.796875 53.09375 
C 72.796875 60.84375 64.90625 68 51 68 
L 23.90625 68 
C 21.90625 68 21 68 21 66.03125 
C 21 65 21.703125 65 23.59375 65 
C 29.59375 65 29.59375 64.25 29.59375 63.203125 
C 29.59375 63.015625 29.59375 62.40625 29.203125 60.921875 
L 15.703125 7.484375 
C 14.796875 4 14.59375 3 7.703125 3 
C 5.40625 3 4.703125 3 4.703125 1.109375 
C 4.703125 0.109375 5.796875 0.109375 6.09375 0.109375 
C 7.90625 0.109375 10 0.109375 11.90625 0.109375 
L 23.703125 0.109375 
C 25.5 0.109375 27.59375 0.109375 29.40625 0.109375 
C 30.203125 0.109375 31.296875 0.109375 31.296875 2 
C 31.296875 3 30.40625 3 28.90625 3 
C 22.796875 3 22.796875 3.796875 22.796875 4.78125 
C 22.796875 4.890625 22.796875 5.578125 23 6.359375 
L 29.703125 33 
L 41.703125 33 
C 51.203125 33 53 27.046875 53 23.78125 
C 53 22.296875 52 18.421875 51.296875 15.84375 
C 50.203125 11.296875 49.90625 10.1875 49.90625 8.3125 
C 49.90625 1.28125 55.703125 -2 62.40625 -2 
C 70.5 -2 74 7.828125 74 9.234375 
C 74 9.921875 73.5 10.21875 72.90625 10.21875 
C 72.09375 10.21875 71.90625 9.625 71.703125 8.828125 
C 69.296875 1.78125 65.203125 0 62.703125 0 
C 60.203125 0 58.59375 1.09375 58.59375 5.5625 
C 58.59375 7.953125 59.796875 17 59.90625 17.5 
C 60.40625 21.171875 60.40625 21.5625 60.40625 22.375 
C 60.40625 29.625 54.5 32.703125 50.703125 33.890625 
z
" id="CMMI12-82"/>
       <path d="M 12.703125 7.59375 
C 17 12.546875 20.5 15.6875 25.5 20.25 
C 31.5 25.5 34.09375 28.015625 35.5 29.546875 
C 42.5 36.53125 46 42.390625 46 43.1875 
C 46 44 45.203125 44 45 44 
C 44.296875 44 44.09375 43.640625 43.59375 42.96875 
C 41.09375 38.96875 38.703125 36.984375 36.09375 36.984375 
C 34 36.984375 32.90625 37.828125 31 40.078125 
C 28.90625 42.421875 27.203125 44 24.296875 44 
C 17 44 12.59375 35.265625 12.59375 33.25 
C 12.59375 32.9375 12.703125 32.3125 13.59375 32.3125 
C 14.40625 32.3125 14.5 32.671875 14.796875 33.328125 
C 16.5 37.0625 21.296875 37.71875 23.203125 37.71875 
C 25.296875 37.71875 27.296875 37.125 29.40625 36.359375 
C 33.203125 35 34.796875 35 35.796875 35 
C 36.5 35 36.90625 35 37.40625 35.09375 
C 34.09375 31.15625 28.703125 26.296875 24.203125 22.15625 
L 14.09375 12.75 
C 8 6.484375 4.296875 0.515625 4.296875 -0.1875 
C 4.296875 -0.796875 4.796875 -1 5.40625 -1 
C 6 -1 6.09375 -0.890625 6.796875 0.21875 
C 8.40625 2.546875 11.59375 6 15.296875 6 
C 17.40625 6 18.40625 5.34375 20.40625 3.015625 
C 22.296875 0.953125 24 -1 27.203125 -1 
C 37 -1 42.59375 11.4375 42.59375 13.6875 
C 42.59375 14.109375 42.5 14.71875 41.5 14.71875 
C 40.703125 14.71875 40.59375 14.328125 40.296875 13.359375 
C 38.09375 7.625 32.203125 5.28125 28.296875 5.28125 
C 26.203125 5.28125 24.203125 5.875 22.09375 6.640625 
C 18.09375 8 17 8 15.703125 8 
C 14.703125 8 13.59375 8 12.703125 7.59375 
z
" id="CMMI12-122"/>
       <path d="M 26.296875 24.703125 
C 26.296875 31.875 25.59375 44.015625 19.59375 56.859375 
C 14.796875 67.234375 6.59375 74.5 5.40625 74.5 
C 5.09375 74.5 4.703125 74.390625 4.703125 73.890625 
C 4.703125 73.703125 4.796875 73.59375 4.90625 73.390625 
C 9.703125 68.40625 21.90625 55.75 21.90625 24.75 
C 21.90625 -6.359375 9.796875 -19.015625 4.90625 -24.015625 
C 4.796875 -24.203125 4.703125 -24.3125 4.703125 -24.5 
C 4.703125 -25 5.09375 -25 5.40625 -25 
C 6.5 -25 15 -17.625 19.90625 -6.65625 
C 24.90625 4.390625 26.296875 15.140625 26.296875 24.703125 
z
" id="CMR17-41"/>
       <path d="M 38.90625 27.890625 
L 18.90625 47.796875 
C 17.703125 49 17.5 49.1875 16.703125 49.1875 
C 15.703125 49.1875 14.703125 48.296875 14.703125 47.1875 
C 14.703125 46.5 14.90625 46.296875 16 45.1875 
L 36 25.09375 
L 16 5 
C 14.90625 3.890625 14.703125 3.6875 14.703125 3 
C 14.703125 1.890625 15.703125 1 16.703125 1 
C 17.5 1 17.703125 1.1875 18.90625 2.390625 
L 38.796875 22.296875 
L 59.5 1.59375 
C 59.703125 1.5 60.40625 1 61 1 
C 62.203125 1 63 1.890625 63 3 
C 63 3.1875 63 3.59375 62.703125 4.09375 
C 62.59375 4.296875 46.703125 20 41.703125 25.09375 
L 60 43.390625 
C 60.5 44 62 45.296875 62.5 45.890625 
C 62.59375 46.09375 63 46.5 63 47.1875 
C 63 48.296875 62.203125 49.1875 61 49.1875 
C 60.203125 49.1875 59.796875 48.796875 58.703125 47.6875 
z
" id="CMSY10-2"/>
      </defs>
      <use transform="scale(0.996264)" xlink:href="#CMMI12-104"/>
      <use transform="translate(56.154624 0)scale(0.996264)" xlink:href="#CMR17-40"/>
      <use transform="translate(91.435392 0)scale(0.996264)" xlink:href="#CMMI12-18"/>
      <use transform="translate(139.6049 0)scale(0.996264)" xlink:href="#CMMI12-59"/>
      <use transform="translate(183.306482 0)scale(0.996264)" xlink:href="#CMMI12-82"/>
      <use transform="translate(257.557308 -14.943915)scale(0.697382)" xlink:href="#CMMI12-122"/>
      <use transform="translate(292.883863 0)scale(0.996264)" xlink:href="#CMR17-41"/>
      <use transform="translate(350.303838 0)scale(0.996264)" xlink:href="#CMSY10-2"/>
      <use transform="translate(449.930513 0)scale(0.996264)" xlink:href="#CMMI12-82"/>
      <use transform="translate(524.181338 -14.943915)scale(0.697382)" xlink:href="#CMMI12-122"/>
     </g>
    </g>
   </g>
   <g id="line2d_33">
    <path clip-path="url(#p98c26491a4)" d="M 54 44.443636 
L 57.381818 44.484656 
L 60.763636 44.60768 
L 64.145455 44.812599 
L 67.527273 45.09923 
L 70.909091 45.467319 
L 74.290909 45.91654 
L 77.672727 46.446493 
L 81.054545 47.056708 
L 84.436364 47.746645 
L 87.818182 48.515689 
L 91.2 49.36316 
L 94.581818 50.288307 
L 97.963636 51.290308 
L 101.345455 52.368276 
L 104.727273 53.521256 
L 108.109091 54.748227 
L 111.490909 56.048104 
L 114.872727 57.419736 
L 118.254545 58.861911 
L 121.636364 60.373354 
L 125.018182 61.952731 
L 128.4 63.598648 
L 131.781818 65.309653 
L 135.163636 67.08424 
L 138.545455 68.920846 
L 141.927273 70.817856 
L 145.309091 72.773603 
L 148.690909 74.786371 
L 152.072727 76.854396 
L 155.454545 78.975867 
L 158.836364 81.148929 
L 162.218182 83.371686 
L 165.6 85.6422 
L 168.981818 87.958496 
L 172.363636 90.318561 
L 175.745455 92.720349 
L 179.127273 95.161784 
L 182.509091 97.640756 
L 185.890909 100.155133 
L 189.272727 102.702754 
L 192.654545 105.281438 
L 196.036364 107.888982 
L 199.418182 110.523168 
L 202.8 113.181759 
L 206.181818 115.862511 
L 209.563636 118.563165 
L 212.945455 121.28146 
L 216.327273 124.015127 
L 219.709091 126.761898 
L 223.090909 129.519504 
L 226.472727 132.285683 
L 229.854545 135.05818 
L 233.236364 137.834749 
L 236.618182 140.61316 
L 240 143.391196 
L 243.381818 146.166664 
L 246.763636 148.937393 
L 250.145455 151.701238 
L 253.527273 154.456085 
L 256.909091 157.199853 
L 260.290909 159.930501 
L 263.672727 162.646028 
L 267.054545 165.344478 
L 270.436364 168.023945 
L 273.818182 170.682578 
L 277.2 173.318582 
L 280.581818 175.930229 
L 283.963636 178.515855 
L 287.345455 181.073871 
L 290.727273 183.602768 
L 294.109091 186.101118 
L 297.490909 188.567587 
L 300.872727 191.000934 
L 304.254545 193.400027 
L 307.636364 195.763841 
L 311.018182 198.09147 
L 314.4 200.382138 
L 317.781818 202.635204 
L 321.163636 204.85017 
L 324.545455 207.026698 
L 327.927273 209.164613 
L 331.309091 211.263917 
L 334.690909 213.324803 
L 338.072727 215.347663 
L 341.454545 217.333102 
L 344.836364 219.281948 
L 348.218182 221.195266 
L 351.6 223.074366 
L 354.981818 224.920813 
L 358.363636 226.736432 
L 361.745455 228.523314 
L 365.127273 230.283812 
L 368.509091 232.020539 
L 371.890909 233.736353 
L 375.272727 235.434344 
L 378.654545 237.117806 
L 382.036364 238.79021 
L 385.418182 240.455162 
L 388.8 242.116364 
" style="fill:none;stroke:#1f77b4;stroke-linecap:square;stroke-width:1.5;"/>
   </g>
   <g id="line2d_34">
    <path clip-path="url(#p98c26491a4)" d="M 54 114.373642 
L 57.381818 114.393387 
L 60.763636 114.452614 
L 64.145455 114.551295 
L 67.527273 114.689389 
L 70.909091 114.866835 
L 74.290909 115.083554 
L 77.672727 115.339451 
L 81.054545 115.634413 
L 84.436364 115.968308 
L 87.818182 116.340986 
L 91.2 116.752281 
L 94.581818 117.202005 
L 97.963636 117.689953 
L 101.345455 118.215902 
L 104.727273 118.779608 
L 108.109091 119.380808 
L 111.490909 120.01922 
L 114.872727 120.694542 
L 118.254545 121.40645 
L 121.636364 122.154603 
L 125.018182 122.938636 
L 128.4 123.758167 
L 131.781818 124.61279 
L 135.163636 125.502081 
L 138.545455 126.425592 
L 141.927273 127.382858 
L 145.309091 128.373391 
L 148.690909 129.396682 
L 152.072727 130.452202 
L 155.454545 131.539402 
L 158.836364 132.657711 
L 162.218182 133.806541 
L 165.6 134.985282 
L 168.981818 136.193306 
L 172.363636 137.429964 
L 175.745455 138.69459 
L 179.127273 139.986502 
L 182.509091 141.304997 
L 185.890909 142.649357 
L 189.272727 144.018848 
L 192.654545 145.412721 
L 196.036364 146.83021 
L 199.418182 148.270539 
L 202.8 149.732915 
L 206.181818 151.216536 
L 209.563636 152.720587 
L 212.945455 154.244245 
L 216.327273 155.786676 
L 219.709091 157.347039 
L 223.090909 158.924486 
L 226.472727 160.518164 
L 229.854545 162.127216 
L 233.236364 163.750782 
L 236.618182 165.387999 
L 240 167.038005 
L 243.381818 168.699941 
L 246.763636 170.372948 
L 250.145455 172.056173 
L 253.527273 173.748769 
L 256.909091 175.449896 
L 260.290909 177.158723 
L 263.672727 178.874433 
L 267.054545 180.596218 
L 270.436364 182.323287 
L 273.818182 184.054865 
L 277.2 185.790195 
L 280.581818 187.528541 
L 283.963636 189.26919 
L 287.345455 191.011452 
L 290.727273 192.754665 
L 294.109091 194.498193 
L 297.490909 196.241433 
L 300.872727 197.983814 
L 304.254545 199.724799 
L 307.636364 201.463888 
L 311.018182 203.200619 
L 314.4 204.934571 
L 317.781818 206.665367 
L 321.163636 208.39267 
L 324.545455 210.116194 
L 327.927273 211.835695 
L 331.309091 213.550982 
L 334.690909 215.26191 
L 338.072727 216.968385 
L 341.454545 218.670367 
L 344.836364 220.367862 
L 348.218182 222.060929 
L 351.6 223.749678 
L 354.981818 225.434266 
L 358.363636 227.114899 
L 361.745455 228.791828 
L 365.127273 230.465344 
L 368.509091 232.135781 
L 371.890909 233.803509 
L 375.272727 235.468926 
L 378.654545 237.132462 
L 382.036364 238.794567 
L 385.418182 240.455708 
L 388.8 242.116364 
" style="fill:none;stroke:#ff7f0e;stroke-linecap:square;stroke-width:1.5;"/>
   </g>
   <g id="line2d_35">
    <path clip-path="url(#p98c26491a4)" d="M 54 162.805237 
L 57.381818 162.805637 
L 60.763636 162.80688 
L 64.145455 162.809096 
L 67.527273 162.812496 
L 70.909091 162.817376 
L 74.290909 162.824109 
L 77.672727 162.833142 
L 81.054545 162.844993 
L 84.436364 162.860243 
L 87.818182 162.879531 
L 91.2 162.903549 
L 94.581818 162.933035 
L 97.963636 162.968768 
L 101.345455 163.011558 
L 104.727273 163.062244 
L 108.109091 163.121687 
L 111.490909 163.190762 
L 114.872727 163.270357 
L 118.254545 163.361364 
L 121.636364 163.464675 
L 125.018182 163.581181 
L 128.4 163.711763 
L 131.781818 163.857293 
L 135.163636 164.018627 
L 138.545455 164.196606 
L 141.927273 164.39205 
L 145.309091 164.605757 
L 148.690909 164.838502 
L 152.072727 165.091033 
L 155.454545 165.364071 
L 158.836364 165.658309 
L 162.218182 165.974407 
L 165.6 166.312999 
L 168.981818 166.674682 
L 172.363636 167.060025 
L 175.745455 167.46956 
L 179.127273 167.903787 
L 182.509091 168.363171 
L 185.890909 168.848145 
L 189.272727 169.359104 
L 192.654545 169.89641 
L 196.036364 170.46039 
L 199.418182 171.051336 
L 202.8 171.669504 
L 206.181818 172.315116 
L 209.563636 172.988359 
L 212.945455 173.689387 
L 216.327273 174.418317 
L 219.709091 175.175233 
L 223.090909 175.960186 
L 226.472727 176.773193 
L 229.854545 177.614238 
L 233.236364 178.48327 
L 236.618182 179.38021 
L 240 180.304942 
L 243.381818 181.257324 
L 246.763636 182.237178 
L 250.145455 183.244299 
L 253.527273 184.27845 
L 256.909091 185.339366 
L 260.290909 186.426753 
L 263.672727 187.540288 
L 267.054545 188.679621 
L 270.436364 189.844375 
L 273.818182 191.034147 
L 277.2 192.248508 
L 280.581818 193.487004 
L 283.963636 194.749157 
L 287.345455 196.034465 
L 290.727273 197.342405 
L 294.109091 198.672429 
L 297.490909 200.023969 
L 300.872727 201.396438 
L 304.254545 202.789226 
L 307.636364 204.201706 
L 311.018182 205.633232 
L 314.4 207.083141 
L 317.781818 208.550752 
L 321.163636 210.03537 
L 324.545455 211.536281 
L 327.927273 213.05276 
L 331.309091 214.584066 
L 334.690909 216.129448 
L 338.072727 217.688139 
L 341.454545 219.259362 
L 344.836364 220.842331 
L 348.218182 222.436246 
L 351.6 224.040303 
L 354.981818 225.653684 
L 358.363636 227.275568 
L 361.745455 228.905123 
L 365.127273 230.541514 
L 368.509091 232.183897 
L 371.890909 233.831427 
L 375.272727 235.483252 
L 378.654545 237.138516 
L 382.036364 238.796363 
L 385.418182 240.455932 
L 388.8 242.116364 
" style="fill:none;stroke:#2ca02c;stroke-linecap:square;stroke-width:1.5;"/>
   </g>
   <g id="line2d_36">
    <path clip-path="url(#p98c26491a4)" d="M 57.381818 189.730074 
L 60.763636 189.595277 
L 64.145455 189.403624 
L 67.527273 189.166322 
L 70.909091 188.891304 
L 74.290909 188.584781 
L 77.672727 188.251898 
L 81.054545 187.897076 
L 84.436364 187.524208 
L 87.818182 187.136789 
L 91.2 186.738002 
L 94.581818 186.330773 
L 97.963636 185.917822 
L 101.345455 185.501688 
L 104.727273 185.084761 
L 108.109091 184.669295 
L 111.490909 184.257427 
L 114.872727 183.851188 
L 118.254545 183.452514 
L 121.636364 183.063253 
L 125.018182 182.685168 
L 128.4 182.319951 
L 131.781818 181.969219 
L 135.163636 181.634522 
L 138.545455 181.317345 
L 141.927273 181.019111 
L 145.309091 180.741182 
L 148.690909 180.484862 
L 152.072727 180.2514 
L 155.454545 180.041986 
L 158.836364 179.85776 
L 162.218182 179.699804 
L 165.6 179.569151 
L 168.981818 179.46678 
L 172.363636 179.393618 
L 175.745455 179.350544 
L 179.127273 179.338383 
L 182.509091 179.357911 
L 185.890909 179.409854 
L 189.272727 179.49489 
L 192.654545 179.613646 
L 196.036364 179.766699 
L 199.418182 179.954578 
L 202.8 180.177765 
L 206.181818 180.43669 
L 209.563636 180.731738 
L 212.945455 181.063244 
L 216.327273 181.431496 
L 219.709091 181.836734 
L 223.090909 182.279151 
L 226.472727 182.758891 
L 229.854545 183.276056 
L 233.236364 183.830696 
L 236.618182 184.422819 
L 240 185.052385 
L 243.381818 185.719309 
L 246.763636 186.423463 
L 250.145455 187.164673 
L 253.527273 187.94272 
L 256.909091 188.757344 
L 260.290909 189.60824 
L 263.672727 190.495062 
L 267.054545 191.417421 
L 270.436364 192.374889 
L 273.818182 193.366996 
L 277.2 194.393233 
L 280.581818 195.45305 
L 283.963636 196.545862 
L 287.345455 197.671044 
L 290.727273 198.827936 
L 294.109091 200.015841 
L 297.490909 201.234027 
L 300.872727 202.48173 
L 304.254545 203.758151 
L 307.636364 205.06246 
L 311.018182 206.393794 
L 314.4 207.751263 
L 317.781818 209.133946 
L 321.163636 210.540893 
L 324.545455 211.971129 
L 327.927273 213.423654 
L 331.309091 214.897441 
L 334.690909 216.391441 
L 338.072727 217.904582 
L 341.454545 219.435773 
L 344.836364 220.983899 
L 348.218182 222.547831 
L 351.6 224.12642 
L 354.981818 225.718501 
L 358.363636 227.322896 
L 361.745455 228.938412 
L 365.127273 230.563843 
L 368.509091 232.197975 
L 371.890909 233.839581 
L 375.272727 235.48743 
L 378.654545 237.14028 
L 382.036364 238.796886 
L 385.418182 240.455998 
L 388.8 242.116364 
" style="fill:none;stroke:#d62728;stroke-linecap:square;stroke-width:1.5;"/>
   </g>
   <g id="patch_3">
    <path d="M 54 252 
L 54 34.56 
" style="fill:none;stroke:#000000;stroke-linecap:square;stroke-linejoin:miter;stroke-width:0.8;"/>
   </g>
   <g id="patch_4">
    <path d="M 388.8 252 
L 388.8 34.56 
" style="fill:none;stroke:#000000;stroke-linecap:square;stroke-linejoin:miter;stroke-width:0.8;"/>
   </g>
   <g id="patch_5">
    <path d="M 54 252 
L 388.8 252 
" style="fill:none;stroke:#000000;stroke-linecap:square;stroke-linejoin:miter;stroke-width:0.8;"/>
   </g>
   <g id="patch_6">
    <path d="M 54 34.56 
L 388.8 34.56 
" style="fill:none;stroke:#000000;stroke-linecap:square;stroke-linejoin:miter;stroke-width:0.8;"/>
   </g>
   <g id="legend_1">
    <g id="patch_7">
     <path d="M 311.631517 101.129991 
L 381.8 101.129991 
Q 383.8 101.129991 383.8 99.129991 
L 383.8 41.56 
Q 383.8 39.56 381.8 39.56 
L 311.631517 39.56 
Q 309.631517 39.56 309.631517 41.56 
L 309.631517 99.129991 
Q 309.631517 101.129991 311.631517 101.129991 
z
" style="fill:#ffffff;opacity:0.8;stroke:#cccccc;stroke-linejoin:miter;"/>
    </g>
    <g id="line2d_37">
     <path d="M 313.631517 47.658437 
L 333.631517 47.658437 
" style="fill:none;stroke:#1f77b4;stroke-linecap:square;stroke-width:1.5;"/>
    </g>
    <g id="line2d_38"/>
    <g id="text_19">
     <!-- $R_z = 0.5$ -->
     <g transform="translate(341.631517 51.158437)scale(0.1 -0.1)">
      <defs>
       <path d="M 64.296875 31.515625 
C 65.796875 31.515625 67.296875 31.515625 67.296875 33.203125 
C 67.296875 35 65.59375 35 63.90625 35 
L 8 35 
C 6.296875 35 4.59375 35 4.59375 33.203125 
C 4.59375 31.515625 6.09375 31.515625 7.59375 31.515625 
z
M 63.90625 14 
C 65.59375 14 67.296875 14 67.296875 15.796875 
C 67.296875 17.484375 65.796875 17.484375 64.296875 17.484375 
L 7.59375 17.484375 
C 6.09375 17.484375 4.59375 17.484375 4.59375 15.796875 
C 4.59375 14 6.296875 14 8 14 
z
" id="CMR17-61"/>
      </defs>
      <use transform="scale(0.996264)" xlink:href="#CMMI12-82"/>
      <use transform="translate(74.250826 -14.943915)scale(0.697382)" xlink:href="#CMMI12-122"/>
      <use transform="translate(137.25139 0)scale(0.996264)" xlink:href="#CMR17-61"/>
      <use transform="translate(236.640187 0)scale(0.996264)" xlink:href="#CMR17-48"/>
      <use transform="translate(282.330664 0)scale(0.996264)" xlink:href="#CMMI12-58"/>
      <use transform="translate(309.427841 0)scale(0.996264)" xlink:href="#CMR17-53"/>
     </g>
    </g>
    <g id="line2d_39">
     <path d="M 313.631517 62.336562 
L 333.631517 62.336562 
" style="fill:none;stroke:#ff7f0e;stroke-linecap:square;stroke-width:1.5;"/>
    </g>
    <g id="line2d_40"/>
    <g id="text_20">
     <!-- $R_z = 0.7$ -->
     <g transform="translate(341.631517 65.836562)scale(0.1 -0.1)">
      <use transform="scale(0.996264)" xlink:href="#CMMI12-82"/>
      <use transform="translate(74.250826 -14.943915)scale(0.697382)" xlink:href="#CMMI12-122"/>
      <use transform="translate(137.25139 0)scale(0.996264)" xlink:href="#CMR17-61"/>
      <use transform="translate(236.640187 0)scale(0.996264)" xlink:href="#CMR17-48"/>
      <use transform="translate(282.330664 0)scale(0.996264)" xlink:href="#CMMI12-58"/>
      <use transform="translate(309.427841 0)scale(0.996264)" xlink:href="#CMR17-55"/>
     </g>
    </g>
    <g id="line2d_41">
     <path d="M 313.631517 77.014687 
L 333.631517 77.014687 
" style="fill:none;stroke:#2ca02c;stroke-linecap:square;stroke-width:1.5;"/>
    </g>
    <g id="line2d_42"/>
    <g id="text_21">
     <!-- $R_z = 0.9$ -->
     <g transform="translate(341.631517 80.514687)scale(0.1 -0.1)">
      <defs>
       <path d="M 35.203125 29.125 
C 35.203125 7.25 26.09375 0.484375 18.59375 0.484375 
C 16.296875 0.484375 10.703125 0.484375 8.40625 4.59375 
C 11 4.1875 12.90625 5.578125 12.90625 8.09375 
C 12.90625 10.8125 10.703125 11.703125 9.296875 11.703125 
C 8.40625 11.703125 5.703125 11.296875 5.703125 7.90625 
C 5.703125 1.109375 11.59375 -2 18.796875 -2 
C 30.296875 -2 42 10.53125 42 32.390625 
C 42 59.640625 30.796875 65.296875 23.203125 65.296875 
C 13.296875 65.296875 3.796875 56.6875 3.796875 43.40625 
C 3.796875 31.109375 11.90625 22 22.09375 22 
C 30.5 22 34.203125 29.734375 35.203125 33 
z
M 22.296875 23.59375 
C 19.59375 23.59375 15.796875 24.09375 12.703125 30.03125 
C 10.59375 33.890625 10.59375 38.453125 10.59375 43.296875 
C 10.59375 49.15625 10.59375 53.203125 13.40625 57.5625 
C 14.796875 59.640625 17.40625 63 23.203125 63 
C 35 63 35 45.078125 35 41.125 
C 35 34.09375 31.796875 23.59375 22.296875 23.59375 
z
" id="CMR17-57"/>
      </defs>
      <use transform="scale(0.996264)" xlink:href="#CMMI12-82"/>
      <use transform="translate(74.250826 -14.943915)scale(0.697382)" xlink:href="#CMMI12-122"/>
      <use transform="translate(137.25139 0)scale(0.996264)" xlink:href="#CMR17-61"/>
      <use transform="translate(236.640187 0)scale(0.996264)" xlink:href="#CMR17-48"/>
      <use transform="translate(282.330664 0)scale(0.996264)" xlink:href="#CMMI12-58"/>
      <use transform="translate(309.427841 0)scale(0.996264)" xlink:href="#CMR17-57"/>
     </g>
    </g>
    <g id="line2d_43">
     <path d="M 313.631517 91.692813 
L 333.631517 91.692813 
" style="fill:none;stroke:#d62728;stroke-linecap:square;stroke-width:1.5;"/>
    </g>
    <g id="line2d_44"/>
    <g id="text_22">
     <!-- $R_z = 1.0$ -->
     <g transform="translate(341.631517 95.192813)scale(0.1 -0.1)">
      <use transform="scale(0.996264)" xlink:href="#CMMI12-82"/>
      <use transform="translate(74.250826 -14.943915)scale(0.697382)" xlink:href="#CMMI12-122"/>
      <use transform="translate(137.25139 0)scale(0.996264)" xlink:href="#CMR17-61"/>
      <use transform="translate(236.640187 0)scale(0.996264)" xlink:href="#CMR17-49"/>
      <use transform="translate(282.330664 0)scale(0.996264)" xlink:href="#CMMI12-58"/>
      <use transform="translate(309.427841 0)scale(0.996264)" xlink:href="#CMR17-48"/>
     </g>
    </g>
   </g>
  </g>
 </g>
 <defs>
  <clipPath id="p98c26491a4">
   <rect height="217.44" width="334.8" x="54" y="34.56"/>
  </clipPath>
 </defs>
</svg>
