<?xml version="1.0" encoding="utf-8" standalone="no"?>
<!DOCTYPE svg PUBLIC "-//W3C//DTD SVG 1.1//EN"
  "http://www.w3.org/Graphics/SVG/1.1/DTD/svg11.dtd">
<!-- Created with matplotlib (https://matplotlib.org/) -->
<svg height="288pt" version="1.1" viewBox="0 0 432 288" width="432pt" xmlns="http://www.w3.org/2000/svg" xmlns:xlink="http://www.w3.org/1999/xlink">
 <metadata>
  <rdf:RDF xmlns:cc="http://creativecommons.org/ns#" xmlns:dc="http://purl.org/dc/elements/1.1/" xmlns:rdf="http://www.w3.org/1999/02/22-rdf-syntax-ns#">
   <cc:Work>
    <dc:type rdf:resource="http://purl.org/dc/dcmitype/StillImage"/>
    <dc:date>2021-09-15T14:52:13.785395</dc:date>
    <dc:format>image/svg+xml</dc:format>
    <dc:creator>
     <cc:Agent>
      <dc:title>Matplotlib v3.3.3, https://matplotlib.org/</dc:title>
     </cc:Agent>
    </dc:creator>
   </cc:Work>
  </rdf:RDF>
 </metadata>
 <defs>
  <style type="text/css">*{stroke-linecap:butt;stroke-linejoin:round;}</style>
 </defs>
 <g id="figure_1">
  <g id="patch_1">
   <path d="M 0 288 
L 432 288 
L 432 0 
L 0 0 
z
" style="fill:#ffffff;"/>
  </g>
  <g id="axes_1">
   <g id="patch_2">
    <path d="M 54 252 
L 388.8 252 
L 388.8 34.56 
L 54 34.56 
z
" style="fill:#ffffff;"/>
   </g>
   <g id="PathCollection_1">
    <defs>
     <path d="M 0 3.162278 
C 0.838646 3.162278 1.643056 2.82908 2.236068 2.236068 
C 2.82908 1.643056 3.162278 0.838646 3.162278 0 
C 3.162278 -0.838646 2.82908 -1.643056 2.236068 -2.236068 
C 1.643056 -2.82908 0.838646 -3.162278 0 -3.162278 
C -0.838646 -3.162278 -1.643056 -2.82908 -2.236068 -2.236068 
C -2.82908 -1.643056 -3.162278 -0.838646 -3.162278 0 
C -3.162278 0.838646 -2.82908 1.643056 -2.236068 2.236068 
C -1.643056 2.82908 -0.838646 3.162278 0 3.162278 
z
" id="mdad85e4af7" style="stroke:#ff0000;"/>
    </defs>
    <g clip-path="url(#p7944bbc1f8)">
     <use style="fill:#ff0000;stroke:#ff0000;" x="159.026481" xlink:href="#mdad85e4af7" y="101.491491"/>
    </g>
   </g>
   <g id="PathCollection_2">
    <g clip-path="url(#p7944bbc1f8)">
     <use style="fill:#ff0000;stroke:#ff0000;" x="221.4" xlink:href="#mdad85e4af7" y="118.190769"/>
    </g>
   </g>
   <g id="matplotlib.axis_1">
    <g id="xtick_1">
     <g id="line2d_1">
      <path clip-path="url(#p7944bbc1f8)" d="M 54 252 
L 54 34.56 
" style="fill:none;stroke:#b0b0b0;stroke-linecap:square;stroke-width:0.8;"/>
     </g>
     <g id="line2d_2">
      <defs>
       <path d="M 0 0 
L 0 3.5 
" id="m79ff18c6a8" style="stroke:#000000;stroke-width:0.8;"/>
      </defs>
      <g>
       <use style="stroke:#000000;stroke-width:0.8;" x="54" xlink:href="#m79ff18c6a8" y="252"/>
      </g>
     </g>
     <g id="text_1">
      <!-- $\mathdefault{0.0}$ -->
      <g transform="translate(47.634961 265.918498)scale(0.1 -0.1)">
       <defs>
        <path d="M 42 31.640625 
C 42 37.75 41.90625 48.125 37.703125 56.109375 
C 34 63.109375 28.09375 65.59375 22.90625 65.59375 
C 18.09375 65.59375 12 63.40625 8.203125 56.203125 
C 4.203125 48.71875 3.796875 39.4375 3.796875 31.640625 
C 3.796875 25.953125 3.90625 17.28125 7 9.671875 
C 11.296875 -0.609375 19 -2 22.90625 -2 
C 27.5 -2 34.5 -0.109375 38.59375 9.375 
C 41.59375 16.28125 42 24.359375 42 31.640625 
z
M 22.90625 -0.40625 
C 16.5 -0.40625 12.703125 5.078125 11.296875 12.6875 
C 10.203125 18.5625 10.203125 27.15625 10.203125 32.75 
C 10.203125 40.4375 10.203125 46.828125 11.5 52.921875 
C 13.40625 61.390625 19 64 22.90625 64 
C 27 64 32.296875 61.296875 34.203125 53.125 
C 35.5 47.4375 35.59375 40.734375 35.59375 32.75 
C 35.59375 26.25 35.59375 18.265625 34.40625 12.375 
C 32.296875 1.484375 26.40625 -0.40625 22.90625 -0.40625 
z
" id="CMR17-48"/>
        <path d="M 18.40625 4.796875 
C 18.40625 7.6875 16 9.671875 13.59375 9.671875 
C 10.703125 9.671875 8.703125 7.28125 8.703125 4.890625 
C 8.703125 2 11.09375 0 13.5 0 
C 16.40625 0 18.40625 2.390625 18.40625 4.796875 
z
" id="CMMI12-58"/>
       </defs>
       <use transform="scale(0.996264)" xlink:href="#CMR17-48"/>
       <use transform="translate(45.690477 0)scale(0.996264)" xlink:href="#CMMI12-58"/>
       <use transform="translate(72.787654 0)scale(0.996264)" xlink:href="#CMR17-48"/>
      </g>
     </g>
    </g>
    <g id="xtick_2">
     <g id="line2d_3">
      <path clip-path="url(#p7944bbc1f8)" d="M 107.285075 252 
L 107.285075 34.56 
" style="fill:none;stroke:#b0b0b0;stroke-linecap:square;stroke-width:0.8;"/>
     </g>
     <g id="line2d_4">
      <g>
       <use style="stroke:#000000;stroke-width:0.8;" x="107.285075" xlink:href="#m79ff18c6a8" y="252"/>
      </g>
     </g>
     <g id="text_2">
      <!-- $\mathdefault{0.5}$ -->
      <g transform="translate(100.920035 265.918498)scale(0.1 -0.1)">
       <defs>
        <path d="M 11.40625 57.6875 
C 12.40625 57.28125 16.5 56 20.703125 56 
C 30 56 35.09375 61.109375 38 64.0625 
C 38 64.953125 38 65.5 37.40625 65.5 
C 37.296875 65.5 37.09375 65.5 36.296875 65.046875 
C 32.796875 63.40625 28.703125 62.078125 23.703125 62.078125 
C 20.703125 62.078125 16.203125 62.484375 11.296875 64.671875 
C 10.203125 65.171875 10 65.171875 9.90625 65.171875 
C 9.40625 65.171875 9.296875 65.0625 9.296875 63.078125 
L 9.296875 34.421875 
C 9.296875 32.640625 9.296875 32.140625 10.296875 32.140625 
C 10.796875 32.140625 11 32.34375 11.5 33.03125 
C 14.703125 37.515625 19.09375 39.40625 24.09375 39.40625 
C 27.59375 39.40625 35.09375 37.21875 35.09375 20.140625 
C 35.09375 16.953125 35.09375 11.171875 32.09375 6.578125 
C 29.59375 2.484375 25.703125 0.390625 21.40625 0.390625 
C 14.796875 0.390625 8.09375 5 6.296875 12.71875 
C 6.703125 12.609375 7.5 12.421875 7.90625 12.421875 
C 9.203125 12.421875 11.703125 13.125 11.703125 16.21875 
C 11.703125 18.90625 9.796875 20 7.90625 20 
C 5.59375 20 4.09375 18.59375 4.09375 15.796875 
C 4.09375 7.09375 11 -2 21.59375 -2 
C 31.90625 -2 41.703125 6.875 41.703125 19.75 
C 41.703125 31.71875 33.90625 41 24.203125 41 
C 19.09375 41 14.796875 39.109375 11.40625 35.53125 
z
" id="CMR17-53"/>
       </defs>
       <use transform="scale(0.996264)" xlink:href="#CMR17-48"/>
       <use transform="translate(45.690477 0)scale(0.996264)" xlink:href="#CMMI12-58"/>
       <use transform="translate(72.787654 0)scale(0.996264)" xlink:href="#CMR17-53"/>
      </g>
     </g>
    </g>
    <g id="xtick_3">
     <g id="line2d_5">
      <path clip-path="url(#p7944bbc1f8)" d="M 160.57015 252 
L 160.57015 34.56 
" style="fill:none;stroke:#b0b0b0;stroke-linecap:square;stroke-width:0.8;"/>
     </g>
     <g id="line2d_6">
      <g>
       <use style="stroke:#000000;stroke-width:0.8;" x="160.57015" xlink:href="#m79ff18c6a8" y="252"/>
      </g>
     </g>
     <g id="text_3">
      <!-- $\mathdefault{1.0}$ -->
      <g transform="translate(154.20511 265.918498)scale(0.1 -0.1)">
       <defs>
        <path d="M 26.59375 63.40625 
C 26.59375 65.5 26.5 65.5 25.09375 65.5 
C 21.203125 61.1875 15.296875 59.796875 9.703125 59.796875 
C 9.40625 59.796875 8.90625 59.796875 8.796875 59.5 
C 8.703125 59.296875 8.703125 59.09375 8.703125 57 
C 11.796875 57 17 57.59375 21 59.984375 
L 21 7.203125 
C 21 3.6875 20.796875 2.5 12.203125 2.5 
L 9.203125 2.5 
L 9.203125 0 
C 14 0 19 0 23.796875 0 
C 28.59375 0 33.59375 0 38.40625 0 
L 38.40625 2.5 
L 35.40625 2.5 
C 26.796875 2.5 26.59375 3.59375 26.59375 7.15625 
z
" id="CMR17-49"/>
       </defs>
       <use transform="scale(0.996264)" xlink:href="#CMR17-49"/>
       <use transform="translate(45.690477 0)scale(0.996264)" xlink:href="#CMMI12-58"/>
       <use transform="translate(72.787654 0)scale(0.996264)" xlink:href="#CMR17-48"/>
      </g>
     </g>
    </g>
    <g id="xtick_4">
     <g id="line2d_7">
      <path clip-path="url(#p7944bbc1f8)" d="M 213.855225 252 
L 213.855225 34.56 
" style="fill:none;stroke:#b0b0b0;stroke-linecap:square;stroke-width:0.8;"/>
     </g>
     <g id="line2d_8">
      <g>
       <use style="stroke:#000000;stroke-width:0.8;" x="213.855225" xlink:href="#m79ff18c6a8" y="252"/>
      </g>
     </g>
     <g id="text_4">
      <!-- $\mathdefault{1.5}$ -->
      <g transform="translate(207.490185 265.918498)scale(0.1 -0.1)">
       <use transform="scale(0.996264)" xlink:href="#CMR17-49"/>
       <use transform="translate(45.690477 0)scale(0.996264)" xlink:href="#CMMI12-58"/>
       <use transform="translate(72.787654 0)scale(0.996264)" xlink:href="#CMR17-53"/>
      </g>
     </g>
    </g>
    <g id="xtick_5">
     <g id="line2d_9">
      <path clip-path="url(#p7944bbc1f8)" d="M 267.1403 252 
L 267.1403 34.56 
" style="fill:none;stroke:#b0b0b0;stroke-linecap:square;stroke-width:0.8;"/>
     </g>
     <g id="line2d_10">
      <g>
       <use style="stroke:#000000;stroke-width:0.8;" x="267.1403" xlink:href="#m79ff18c6a8" y="252"/>
      </g>
     </g>
     <g id="text_5">
      <!-- $\mathdefault{2.0}$ -->
      <g transform="translate(260.77526 265.918498)scale(0.1 -0.1)">
       <defs>
        <path d="M 41.703125 15.453125 
L 39.90625 15.453125 
C 38.90625 8.375 38.09375 7.171875 37.703125 6.5625 
C 37.203125 5.765625 30 5.765625 28.59375 5.765625 
L 9.40625 5.765625 
C 13 9.671875 20 16.75 28.5 24.953125 
C 34.59375 30.734375 41.703125 37.53125 41.703125 47.421875 
C 41.703125 59.21875 32.296875 66 21.796875 66 
C 10.796875 66 4.09375 56.3125 4.09375 47.34375 
C 4.09375 43.4375 7 42.9375 8.203125 42.9375 
C 9.203125 42.9375 12.203125 43.546875 12.203125 47.03125 
C 12.203125 50.109375 9.59375 51 8.203125 51 
C 7.59375 51 7 50.90625 6.59375 50.703125 
C 8.5 59.21875 14.296875 63.40625 20.40625 63.40625 
C 29.09375 63.40625 34.796875 56.515625 34.796875 47.421875 
C 34.796875 38.734375 29.703125 31.25 24 24.75 
L 4.09375 2.28125 
L 4.09375 0 
L 39.296875 0 
z
" id="CMR17-50"/>
       </defs>
       <use transform="scale(0.996264)" xlink:href="#CMR17-50"/>
       <use transform="translate(45.690477 0)scale(0.996264)" xlink:href="#CMMI12-58"/>
       <use transform="translate(72.787654 0)scale(0.996264)" xlink:href="#CMR17-48"/>
      </g>
     </g>
    </g>
    <g id="xtick_6">
     <g id="line2d_11">
      <path clip-path="url(#p7944bbc1f8)" d="M 320.425375 252 
L 320.425375 34.56 
" style="fill:none;stroke:#b0b0b0;stroke-linecap:square;stroke-width:0.8;"/>
     </g>
     <g id="line2d_12">
      <g>
       <use style="stroke:#000000;stroke-width:0.8;" x="320.425375" xlink:href="#m79ff18c6a8" y="252"/>
      </g>
     </g>
     <g id="text_6">
      <!-- $\mathdefault{2.5}$ -->
      <g transform="translate(314.060335 265.918498)scale(0.1 -0.1)">
       <use transform="scale(0.996264)" xlink:href="#CMR17-50"/>
       <use transform="translate(45.690477 0)scale(0.996264)" xlink:href="#CMMI12-58"/>
       <use transform="translate(72.787654 0)scale(0.996264)" xlink:href="#CMR17-53"/>
      </g>
     </g>
    </g>
    <g id="xtick_7">
     <g id="line2d_13">
      <path clip-path="url(#p7944bbc1f8)" d="M 373.71045 252 
L 373.71045 34.56 
" style="fill:none;stroke:#b0b0b0;stroke-linecap:square;stroke-width:0.8;"/>
     </g>
     <g id="line2d_14">
      <g>
       <use style="stroke:#000000;stroke-width:0.8;" x="373.71045" xlink:href="#m79ff18c6a8" y="252"/>
      </g>
     </g>
     <g id="text_7">
      <!-- $\mathdefault{3.0}$ -->
      <g transform="translate(367.34541 265.918498)scale(0.1 -0.1)">
       <defs>
        <path d="M 22.09375 33.703125 
C 31 33.703125 34.90625 25.96875 34.90625 17.03125 
C 34.90625 5 28.5 0.390625 22.703125 0.390625 
C 17.40625 0.390625 8.796875 3.03125 6.09375 10.828125 
C 6.59375 10.625 7.09375 10.625 7.59375 10.625 
C 10 10.625 11.796875 12.21875 11.796875 14.8125 
C 11.796875 17.703125 9.59375 19 7.59375 19 
C 5.90625 19 3.296875 18.203125 3.296875 14.46875 
C 3.296875 5.234375 12.296875 -2 22.90625 -2 
C 34 -2 42.5 6.71875 42.5 16.953125 
C 42.5 26.671875 34.5 33.703125 25 34.796875 
C 32.59375 36.375 39.90625 43.0625 39.90625 52.015625 
C 39.90625 59.6875 32 65.296875 23 65.296875 
C 13.90625 65.296875 5.90625 59.828125 5.90625 52.015625 
C 5.90625 48.59375 8.5 48 9.796875 48 
C 11.90625 48 13.703125 49.296875 13.703125 51.890625 
C 13.703125 54.46875 11.90625 55.765625 9.796875 55.765625 
C 9.40625 55.765625 8.90625 55.765625 8.5 55.578125 
C 11.40625 61.859375 19.296875 63 22.796875 63 
C 26.296875 63 32.90625 61.328125 32.90625 51.875 
C 32.90625 49.109375 32.5 44.1875 29.09375 39.84375 
C 26.09375 36 22.703125 36 19.40625 35.6875 
C 18.90625 35.6875 16.59375 35.453125 16.203125 35.453125 
C 15.5 35.359375 15.09375 35.265625 15.09375 34.5 
C 15.09375 33.796875 15.203125 33.703125 17.203125 33.703125 
z
" id="CMR17-51"/>
       </defs>
       <use transform="scale(0.996264)" xlink:href="#CMR17-51"/>
       <use transform="translate(45.690477 0)scale(0.996264)" xlink:href="#CMMI12-58"/>
       <use transform="translate(72.787654 0)scale(0.996264)" xlink:href="#CMR17-48"/>
      </g>
     </g>
    </g>
    <g id="text_8">
     <!-- $\varphi$ -->
     <g transform="translate(218.141384 278.774175)scale(0.1 -0.1)">
      <defs>
       <path d="M 30.09375 4.375 
C 28.40625 4.375 26.90625 4.375 26.90625 4.875 
C 26.90625 5.078125 28.59375 14.46875 29.203125 16.671875 
C 32.40625 29.4375 40 38.625 48.703125 38.625 
C 55.203125 38.625 58.203125 33.734375 58.203125 28.25 
C 58.203125 16.875 45.40625 4.375 30.09375 4.375 
z
M 25.796875 -0.796875 
C 26.40625 -0.890625 27.40625 -1 29.203125 -1 
C 45.59375 -1 60.703125 14.765625 60.703125 30.53125 
C 60.703125 36.625 58 44 49.59375 44 
C 35.203125 44 29.09375 23.734375 23.5 4.96875 
C 12 7.15625 7.203125 13.25 7.203125 19.9375 
C 7.203125 22.640625 9.296875 33.328125 15.09375 40.5 
C 16.203125 41.8125 16.203125 42.015625 16.203125 42.21875 
C 16.203125 43.015625 15.40625 43.015625 15.203125 43.015625 
C 12.5 43.015625 4.90625 28.4375 4.90625 18.953125 
C 4.90625 7.765625 13.703125 1.671875 21.796875 -0.109375 
L 16.59375 -17 
C 16.09375 -18.5 16.09375 -18.6875 16.09375 -19.09375 
C 16.09375 -21.5 18.5 -21.5 18.703125 -21.5 
C 19.703125 -21.5 21.5 -21.109375 22.296875 -19.109375 
C 22.59375 -18.21875 25.40625 -2.78125 25.796875 -0.796875 
z
" id="CMMI12-39"/>
      </defs>
      <use transform="scale(0.996264)" xlink:href="#CMMI12-39"/>
     </g>
    </g>
   </g>
   <g id="matplotlib.axis_2">
    <g id="ytick_1">
     <g id="line2d_15">
      <path clip-path="url(#p7944bbc1f8)" d="M 54 243.636923 
L 388.8 243.636923 
" style="fill:none;stroke:#b0b0b0;stroke-linecap:square;stroke-width:0.8;"/>
     </g>
     <g id="line2d_16">
      <defs>
       <path d="M 0 0 
L -3.5 0 
" id="m34237968d1" style="stroke:#000000;stroke-width:0.8;"/>
      </defs>
      <g>
       <use style="stroke:#000000;stroke-width:0.8;" x="54" xlink:href="#m34237968d1" y="243.636923"/>
      </g>
     </g>
     <g id="text_9">
      <!-- $\mathdefault{−0.5}$ -->
      <g transform="translate(26.521177 247.096172)scale(0.1 -0.1)">
       <defs>
        <path d="M 65.90625 23 
C 67.59375 23 69.40625 23 69.40625 25 
C 69.40625 27 67.59375 27 65.90625 27 
L 11.796875 27 
C 10.09375 27 8.296875 27 8.296875 25 
C 8.296875 23 10.09375 23 11.796875 23 
z
" id="CMSY10-0"/>
       </defs>
       <use transform="scale(0.996264)" xlink:href="#CMSY10-0"/>
       <use transform="translate(77.487468 0)scale(0.996264)" xlink:href="#CMR17-48"/>
       <use transform="translate(123.177945 0)scale(0.996264)" xlink:href="#CMMI12-58"/>
       <use transform="translate(150.275122 0)scale(0.996264)" xlink:href="#CMR17-53"/>
      </g>
     </g>
    </g>
    <g id="ytick_2">
     <g id="line2d_17">
      <path clip-path="url(#p7944bbc1f8)" d="M 54 201.821538 
L 388.8 201.821538 
" style="fill:none;stroke:#b0b0b0;stroke-linecap:square;stroke-width:0.8;"/>
     </g>
     <g id="line2d_18">
      <g>
       <use style="stroke:#000000;stroke-width:0.8;" x="54" xlink:href="#m34237968d1" y="201.821538"/>
      </g>
     </g>
     <g id="text_10">
      <!-- $\mathdefault{0.0}$ -->
      <g transform="translate(34.269921 205.280788)scale(0.1 -0.1)">
       <use transform="scale(0.996264)" xlink:href="#CMR17-48"/>
       <use transform="translate(45.690477 0)scale(0.996264)" xlink:href="#CMMI12-58"/>
       <use transform="translate(72.787654 0)scale(0.996264)" xlink:href="#CMR17-48"/>
      </g>
     </g>
    </g>
    <g id="ytick_3">
     <g id="line2d_19">
      <path clip-path="url(#p7944bbc1f8)" d="M 54 160.006154 
L 388.8 160.006154 
" style="fill:none;stroke:#b0b0b0;stroke-linecap:square;stroke-width:0.8;"/>
     </g>
     <g id="line2d_20">
      <g>
       <use style="stroke:#000000;stroke-width:0.8;" x="54" xlink:href="#m34237968d1" y="160.006154"/>
      </g>
     </g>
     <g id="text_11">
      <!-- $\mathdefault{0.5}$ -->
      <g transform="translate(34.269921 163.465403)scale(0.1 -0.1)">
       <use transform="scale(0.996264)" xlink:href="#CMR17-48"/>
       <use transform="translate(45.690477 0)scale(0.996264)" xlink:href="#CMMI12-58"/>
       <use transform="translate(72.787654 0)scale(0.996264)" xlink:href="#CMR17-53"/>
      </g>
     </g>
    </g>
    <g id="ytick_4">
     <g id="line2d_21">
      <path clip-path="url(#p7944bbc1f8)" d="M 54 118.190769 
L 388.8 118.190769 
" style="fill:none;stroke:#b0b0b0;stroke-linecap:square;stroke-width:0.8;"/>
     </g>
     <g id="line2d_22">
      <g>
       <use style="stroke:#000000;stroke-width:0.8;" x="54" xlink:href="#m34237968d1" y="118.190769"/>
      </g>
     </g>
     <g id="text_12">
      <!-- $\mathdefault{1.0}$ -->
      <g transform="translate(34.269921 121.650018)scale(0.1 -0.1)">
       <use transform="scale(0.996264)" xlink:href="#CMR17-49"/>
       <use transform="translate(45.690477 0)scale(0.996264)" xlink:href="#CMMI12-58"/>
       <use transform="translate(72.787654 0)scale(0.996264)" xlink:href="#CMR17-48"/>
      </g>
     </g>
    </g>
    <g id="ytick_5">
     <g id="line2d_23">
      <path clip-path="url(#p7944bbc1f8)" d="M 54 76.375385 
L 388.8 76.375385 
" style="fill:none;stroke:#b0b0b0;stroke-linecap:square;stroke-width:0.8;"/>
     </g>
     <g id="line2d_24">
      <g>
       <use style="stroke:#000000;stroke-width:0.8;" x="54" xlink:href="#m34237968d1" y="76.375385"/>
      </g>
     </g>
     <g id="text_13">
      <!-- $\mathdefault{1.5}$ -->
      <g transform="translate(34.269921 79.834634)scale(0.1 -0.1)">
       <use transform="scale(0.996264)" xlink:href="#CMR17-49"/>
       <use transform="translate(45.690477 0)scale(0.996264)" xlink:href="#CMMI12-58"/>
       <use transform="translate(72.787654 0)scale(0.996264)" xlink:href="#CMR17-53"/>
      </g>
     </g>
    </g>
    <g id="ytick_6">
     <g id="line2d_25">
      <path clip-path="url(#p7944bbc1f8)" d="M 54 34.56 
L 388.8 34.56 
" style="fill:none;stroke:#b0b0b0;stroke-linecap:square;stroke-width:0.8;"/>
     </g>
     <g id="line2d_26">
      <g>
       <use style="stroke:#000000;stroke-width:0.8;" x="54" xlink:href="#m34237968d1" y="34.56"/>
      </g>
     </g>
     <g id="text_14">
      <!-- $\mathdefault{2.0}$ -->
      <g transform="translate(34.269921 38.019249)scale(0.1 -0.1)">
       <use transform="scale(0.996264)" xlink:href="#CMR17-50"/>
       <use transform="translate(45.690477 0)scale(0.996264)" xlink:href="#CMMI12-58"/>
       <use transform="translate(72.787654 0)scale(0.996264)" xlink:href="#CMR17-48"/>
      </g>
     </g>
    </g>
   </g>
   <g id="LineCollection_1">
    <path clip-path="url(#p7944bbc1f8)" d="M 159.026481 201.821538 
L 159.026481 101.491491 
" style="fill:none;stroke:#000000;stroke-dasharray:9.6,2.4,1.5,2.4;stroke-dashoffset:0;stroke-width:1.5;"/>
   </g>
   <g id="LineCollection_2">
    <path clip-path="url(#p7944bbc1f8)" d="M 221.4 201.821538 
L 221.4 118.190769 
" style="fill:none;stroke:#000000;stroke-dasharray:9.6,2.4,1.5,2.4;stroke-dashoffset:0;stroke-width:1.5;"/>
   </g>
   <g id="line2d_27">
    <path clip-path="url(#p7944bbc1f8)" d="M 54 201.821538 
L 57.381818 196.516457 
L 60.763636 191.227392 
L 64.145455 185.970292 
L 67.527273 180.760964 
L 70.909091 175.615008 
L 74.290909 170.547746 
L 77.672727 165.574155 
L 81.054545 160.708804 
L 84.436364 155.965783 
L 87.818182 151.358648 
L 91.2 146.900352 
L 94.581818 142.603194 
L 97.963636 138.478756 
L 101.345455 134.537851 
L 104.727273 130.790474 
L 108.109091 127.245748 
L 111.490909 123.911885 
L 114.872727 120.796137 
L 118.254545 117.904762 
L 121.636364 115.242983 
L 125.018182 112.814956 
L 128.4 110.623743 
L 131.781818 108.671279 
L 135.163636 106.958356 
L 138.545455 105.484595 
L 141.927273 104.248429 
L 145.309091 103.24709 
L 148.690909 102.476594 
L 152.072727 101.931727 
L 155.454545 101.606034 
L 158.836364 101.49181 
L 162.218182 101.580087 
L 165.6 101.860617 
L 168.981818 102.321862 
L 172.363636 102.950965 
L 175.745455 103.733718 
L 179.127273 104.654524 
L 182.509091 105.696328 
L 185.890909 106.840535 
L 189.272727 108.066882 
L 192.654545 109.353267 
L 196.036364 110.675486 
L 199.418182 112.006856 
L 202.8 113.317641 
L 206.181818 114.57413 
L 209.563636 115.737101 
L 212.945455 116.758979 
L 216.327273 117.577751 
L 219.709091 118.099473 
L 223.090909 118.099473 
L 226.472727 117.577751 
L 229.854545 116.758979 
L 233.236364 115.737101 
L 236.618182 114.57413 
L 240 113.317641 
L 243.381818 112.006856 
L 246.763636 110.675486 
L 250.145455 109.353267 
L 253.527273 108.066882 
L 256.909091 106.840535 
L 260.290909 105.696328 
L 263.672727 104.654524 
L 267.054545 103.733718 
L 270.436364 102.950965 
L 273.818182 102.321862 
L 277.2 101.860617 
L 280.581818 101.580087 
L 283.963636 101.49181 
L 287.345455 101.606034 
L 290.727273 101.931727 
L 294.109091 102.476594 
L 297.490909 103.24709 
L 300.872727 104.248429 
L 304.254545 105.484595 
L 307.636364 106.958356 
L 311.018182 108.671279 
L 314.4 110.623743 
L 317.781818 112.814956 
L 321.163636 115.242983 
L 324.545455 117.904762 
L 327.927273 120.796137 
L 331.309091 123.911885 
L 334.690909 127.245748 
L 338.072727 130.790474 
L 341.454545 134.537851 
L 344.836364 138.478756 
L 348.218182 142.603194 
L 351.6 146.900352 
L 354.981818 151.358648 
L 358.363636 155.965783 
L 361.745455 160.708804 
L 365.127273 165.574155 
L 368.509091 170.547746 
L 371.890909 175.615008 
L 375.272727 180.760964 
L 378.654545 185.970292 
L 382.036364 191.227392 
L 385.418182 196.516457 
L 388.8 201.821538 
" style="fill:none;stroke:#1f77b4;stroke-linecap:square;stroke-width:1.5;"/>
   </g>
   <g id="line2d_28">
    <path clip-path="url(#p7944bbc1f8)" d="M 54 34.56 
L 57.381818 34.812557 
L 60.763636 35.569125 
L 64.145455 36.826403 
L 67.527273 38.578902 
L 70.909091 40.818965 
L 74.290909 43.536797 
L 77.672727 46.720495 
L 81.054545 50.356097 
L 84.436364 54.42763 
L 87.818182 58.917164 
L 91.2 63.804881 
L 94.581818 69.069142 
L 97.963636 74.686562 
L 101.345455 80.632094 
L 104.727273 86.879112 
L 108.109091 93.399505 
L 111.490909 100.163765 
L 114.872727 107.141092 
L 118.254545 114.299484 
L 121.636364 121.605843 
L 125.018182 129.026073 
L 128.4 136.525181 
L 131.781818 144.06737 
L 135.163636 151.616139 
L 138.545455 159.134363 
L 141.927273 166.58438 
L 145.309091 173.92806 
L 148.690909 181.126861 
L 152.072727 188.141872 
L 155.454545 194.933836 
L 158.836364 201.46314 
L 162.218182 207.689774 
L 165.6 213.57325 
L 168.981818 219.072457 
L 172.363636 224.145438 
L 175.745455 228.749069 
L 179.127273 232.838592 
L 182.509091 236.366948 
L 185.890909 239.283827 
L 189.272727 241.534287 
L 192.654545 243.056728 
L 196.036364 243.779814 
L 199.418182 243.617651 
L 202.8 242.461816 
L 206.181818 240.167312 
L 209.563636 236.525377 
L 212.945455 231.203254 
L 216.327273 223.577628 
L 219.709091 212.001528 
L 223.090909 191.641549 
L 226.472727 180.065449 
L 229.854545 172.439822 
L 233.236364 167.1177 
L 236.618182 163.475765 
L 240 161.181261 
L 243.381818 160.025426 
L 246.763636 159.863263 
L 250.145455 160.586349 
L 253.527273 162.10879 
L 256.909091 164.35925 
L 260.290909 167.276129 
L 263.672727 170.804485 
L 267.054545 174.894008 
L 270.436364 179.497639 
L 273.818182 184.57062 
L 277.2 190.069827 
L 280.581818 195.953303 
L 283.963636 202.179937 
L 287.345455 208.70924 
L 290.727273 215.501204 
L 294.109091 222.516216 
L 297.490909 229.715017 
L 300.872727 237.058697 
L 304.254545 244.508714 
L 307.636364 252.026938 
L 311.018182 259.575707 
L 314.4 267.117896 
L 317.781818 274.617004 
L 321.163636 282.037234 
L 324.386419 289 
" style="fill:none;stroke:#ff7f0e;stroke-dasharray:5.55,2.4;stroke-dashoffset:0;stroke-width:1.5;"/>
   </g>
   <g id="line2d_29">
    <path clip-path="url(#p7944bbc1f8)" d="M -1 201.821538 
L 1.253158 201.821538 
L 6.635489 201.821538 
L 12.01782 201.821538 
L 17.400151 201.821538 
L 22.782481 201.821538 
L 28.164812 201.821538 
L 33.547143 201.821538 
L 38.929474 201.821538 
L 44.311805 201.821538 
L 49.694135 201.821538 
L 55.076466 201.821538 
L 60.458797 201.821538 
L 65.841128 201.821538 
L 71.223459 201.821538 
L 76.605789 201.821538 
L 81.98812 201.821538 
L 87.370451 201.821538 
L 92.752782 201.821538 
L 98.135113 201.821538 
L 103.517443 201.821538 
L 108.899774 201.821538 
L 114.282105 201.821538 
L 119.664436 201.821538 
L 125.046767 201.821538 
L 130.429097 201.821538 
L 135.811428 201.821538 
L 141.193759 201.821538 
L 146.57609 201.821538 
L 151.958421 201.821538 
L 157.340751 201.821538 
L 162.723082 201.821538 
L 168.105413 201.821538 
L 173.487744 201.821538 
L 178.870075 201.821538 
L 184.252405 201.821538 
L 189.634736 201.821538 
L 195.017067 201.821538 
L 200.399398 201.821538 
L 205.781729 201.821538 
L 211.164059 201.821538 
L 216.54639 201.821538 
L 221.928721 201.821538 
L 227.311052 201.821538 
L 232.693383 201.821538 
L 238.075713 201.821538 
L 243.458044 201.821538 
L 248.840375 201.821538 
L 254.222706 201.821538 
L 259.605037 201.821538 
L 264.987367 201.821538 
L 270.369698 201.821538 
L 275.752029 201.821538 
L 281.13436 201.821538 
L 286.516691 201.821538 
L 291.899021 201.821538 
L 297.281352 201.821538 
L 302.663683 201.821538 
L 308.046014 201.821538 
L 313.428345 201.821538 
L 318.810675 201.821538 
L 324.193006 201.821538 
L 329.575337 201.821538 
L 334.957668 201.821538 
L 340.339999 201.821538 
L 345.72233 201.821538 
L 351.10466 201.821538 
L 356.486991 201.821538 
L 361.869322 201.821538 
L 367.251653 201.821538 
L 372.633984 201.821538 
L 378.016314 201.821538 
L 383.398645 201.821538 
L 388.780976 201.821538 
L 394.163307 201.821538 
L 399.545638 201.821538 
L 404.927968 201.821538 
L 410.310299 201.821538 
L 415.69263 201.821538 
L 421.074961 201.821538 
L 426.457292 201.821538 
L 431.839622 201.821538 
L 433 201.821538 
" style="fill:none;stroke:#000000;stroke-linecap:square;stroke-width:1.5;"/>
   </g>
   <g id="patch_3">
    <path d="M 54 252 
L 54 34.56 
" style="fill:none;stroke:#000000;stroke-linecap:square;stroke-linejoin:miter;stroke-width:0.8;"/>
   </g>
   <g id="patch_4">
    <path d="M 388.8 252 
L 388.8 34.56 
" style="fill:none;stroke:#000000;stroke-linecap:square;stroke-linejoin:miter;stroke-width:0.8;"/>
   </g>
   <g id="patch_5">
    <path d="M 54 252 
L 388.8 252 
" style="fill:none;stroke:#000000;stroke-linecap:square;stroke-linejoin:miter;stroke-width:0.8;"/>
   </g>
   <g id="patch_6">
    <path d="M 54 34.56 
L 388.8 34.56 
" style="fill:none;stroke:#000000;stroke-linecap:square;stroke-linejoin:miter;stroke-width:0.8;"/>
   </g>
   <g id="text_15">
    <!-- $\varphi_2$ -->
    <g transform="translate(153.775157 218.547692)scale(0.2 -0.2)">
     <use transform="scale(0.996264)" xlink:href="#CMMI12-39"/>
     <use transform="translate(63.903064 -14.943915)scale(0.697382)" xlink:href="#CMR17-50"/>
    </g>
   </g>
   <g id="text_16">
    <!-- $\varphi_1$ -->
    <g transform="translate(213.03 218.547692)scale(0.2 -0.2)">
     <use transform="scale(0.996264)" xlink:href="#CMMI12-39"/>
     <use transform="translate(63.903064 -14.943915)scale(0.697382)" xlink:href="#CMR17-49"/>
    </g>
   </g>
   <g id="legend_1">
    <g id="patch_7">
     <path d="M 326.998892 72.738195 
L 381.8 72.738195 
Q 383.8 72.738195 383.8 70.738195 
L 383.8 41.56 
Q 383.8 39.56 381.8 39.56 
L 326.998892 39.56 
Q 324.998892 39.56 324.998892 41.56 
L 324.998892 70.738195 
Q 324.998892 72.738195 326.998892 72.738195 
z
" style="fill:#ffffff;opacity:0.8;stroke:#cccccc;stroke-linejoin:miter;"/>
    </g>
    <g id="line2d_30">
     <path d="M 328.998892 47.658438 
L 348.998892 47.658438 
" style="fill:none;stroke:#1f77b4;stroke-linecap:square;stroke-width:1.5;"/>
    </g>
    <g id="line2d_31"/>
    <g id="text_17">
     <!-- $h(\varphi)$ -->
     <g transform="translate(356.998892 51.158438)scale(0.1 -0.1)">
      <defs>
       <path d="M 28.09375 66.515625 
C 28.203125 66.921875 28.40625 67.515625 28.40625 68 
C 28.40625 69 27.40625 69 27.203125 69 
C 27.09375 69 22.203125 68.5625 21.703125 68.4375 
C 20 68.328125 18.5 68.09375 16.703125 68.09375 
C 14.203125 67.890625 13.5 67.796875 13.5 66 
C 13.5 65 14.296875 65 15.703125 65 
C 20.59375 65 20.703125 64.109375 20.703125 63.125 
C 20.703125 62.53125 20.5 61.734375 20.40625 61.4375 
L 5.90625 3.875 
C 5.5 2.375 5.5 2.1875 5.5 1.578125 
C 5.5 -0.59375 7.203125 -1 8.203125 -1 
C 9.90625 -1 11.203125 0.296875 11.703125 1.390625 
L 16.203125 19.453125 
C 16.703125 21.65625 17.296875 23.75 17.796875 25.9375 
C 18.90625 30.140625 18.90625 30.234375 20.796875 33.125 
C 22.703125 36.015625 27.203125 42.015625 34.90625 42.015625 
C 38.90625 42.015625 40.296875 39.015625 40.296875 35.03125 
C 40.296875 29.4375 36.40625 18.5625 34.203125 12.578125 
C 33.296875 10.171875 32.796875 8.875 32.796875 7.078125 
C 32.796875 2.59375 35.90625 -1 40.703125 -1 
C 50 -1 53.5 13.671875 53.5 14.265625 
C 53.5 14.765625 53.09375 15.171875 52.5 15.171875 
C 51.59375 15.171875 51.5 14.875 51 13.171875 
C 48.703125 5.1875 45 1 41 1 
C 40 1 38.40625 1 38.40625 4.203125 
C 38.40625 6.8125 39.59375 10 40 11.09375 
C 41.796875 15.90625 46.296875 27.703125 46.296875 33.515625 
C 46.296875 39.5 42.796875 44 35.203125 44 
C 29.5 44 24.5 41.3125 20.40625 36.125 
z
" id="CMMI12-104"/>
       <path d="M 30.59375 -24.390625 
C 30.59375 -24.296875 30.59375 -24.09375 30.296875 -23.796875 
C 25.703125 -19.125 13.40625 -6.359375 13.40625 24.703125 
C 13.40625 55.765625 25.5 68.421875 30.40625 73.390625 
C 30.40625 73.5 30.59375 73.703125 30.59375 74 
C 30.59375 74.296875 30.296875 74.5 29.90625 74.5 
C 28.796875 74.5 20.296875 67.125 15.40625 56.15625 
C 10.40625 45.109375 9 34.359375 9 24.8125 
C 9 17.625 9.703125 5.484375 15.703125 -7.359375 
C 20.5 -17.734375 28.703125 -25 29.90625 -25 
C 30.40625 -25 30.59375 -24.796875 30.59375 -24.390625 
z
" id="CMR17-40"/>
       <path d="M 26.296875 24.703125 
C 26.296875 31.875 25.59375 44.015625 19.59375 56.859375 
C 14.796875 67.234375 6.59375 74.5 5.40625 74.5 
C 5.09375 74.5 4.703125 74.390625 4.703125 73.890625 
C 4.703125 73.703125 4.796875 73.59375 4.90625 73.390625 
C 9.703125 68.40625 21.90625 55.75 21.90625 24.75 
C 21.90625 -6.359375 9.796875 -19.015625 4.90625 -24.015625 
C 4.796875 -24.203125 4.703125 -24.3125 4.703125 -24.5 
C 4.703125 -25 5.09375 -25 5.40625 -25 
C 6.5 -25 15 -17.625 19.90625 -6.65625 
C 24.90625 4.390625 26.296875 15.140625 26.296875 24.703125 
z
" id="CMR17-41"/>
      </defs>
      <use transform="scale(0.996264)" xlink:href="#CMMI12-104"/>
      <use transform="translate(56.154624 0)scale(0.996264)" xlink:href="#CMR17-40"/>
      <use transform="translate(91.435392 0)scale(0.996264)" xlink:href="#CMMI12-39"/>
      <use transform="translate(155.338456 0)scale(0.996264)" xlink:href="#CMR17-41"/>
     </g>
    </g>
    <g id="line2d_32">
     <path d="M 328.998892 62.747535 
L 348.998892 62.747535 
" style="fill:none;stroke:#ff7f0e;stroke-dasharray:5.55,2.4;stroke-dashoffset:0;stroke-width:1.5;"/>
    </g>
    <g id="line2d_33"/>
    <g id="text_18">
     <!-- $h'(\varphi)$ -->
     <g transform="translate(356.998892 66.247535)scale(0.1 -0.1)">
      <defs>
       <path d="M 25.296875 47.5 
C 25.796875 48.703125 26.203125 49.59375 26.203125 50.59375 
C 26.203125 53.5 23.59375 55.90625 20.5 55.90625 
C 17.703125 55.90625 15.90625 54 15.203125 51.40625 
L 3.296875 7.703125 
C 3.296875 7.5 2.90625 6.40625 2.90625 6.296875 
C 2.90625 5.203125 5.5 4.5 6.296875 4.5 
C 6.90625 4.5 7 4.796875 7.59375 6.09375 
z
" id="CMSY10-48"/>
      </defs>
      <use transform="scale(0.996264)" xlink:href="#CMMI12-104"/>
      <use transform="translate(56.154624 36.153639)scale(0.697382)" xlink:href="#CMSY10-48"/>
      <use transform="translate(75.830717 0)scale(0.996264)" xlink:href="#CMR17-40"/>
      <use transform="translate(111.111484 0)scale(0.996264)" xlink:href="#CMMI12-39"/>
      <use transform="translate(175.014548 0)scale(0.996264)" xlink:href="#CMR17-41"/>
     </g>
    </g>
   </g>
  </g>
 </g>
 <defs>
  <clipPath id="p7944bbc1f8">
   <rect height="217.44" width="334.8" x="54" y="34.56"/>
  </clipPath>
 </defs>
</svg>
