<?xml version="1.0" encoding="utf-8" standalone="no"?>
<!DOCTYPE svg PUBLIC "-//W3C//DTD SVG 1.1//EN"
  "http://www.w3.org/Graphics/SVG/1.1/DTD/svg11.dtd">
<!-- Created with matplotlib (https://matplotlib.org/) -->
<svg height="288pt" version="1.1" viewBox="0 0 432 288" width="432pt" xmlns="http://www.w3.org/2000/svg" xmlns:xlink="http://www.w3.org/1999/xlink">
 <metadata>
  <rdf:RDF xmlns:cc="http://creativecommons.org/ns#" xmlns:dc="http://purl.org/dc/elements/1.1/" xmlns:rdf="http://www.w3.org/1999/02/22-rdf-syntax-ns#">
   <cc:Work>
    <dc:type rdf:resource="http://purl.org/dc/dcmitype/StillImage"/>
    <dc:date>2021-09-15T14:56:12.058946</dc:date>
    <dc:format>image/svg+xml</dc:format>
    <dc:creator>
     <cc:Agent>
      <dc:title>Matplotlib v3.3.3, https://matplotlib.org/</dc:title>
     </cc:Agent>
    </dc:creator>
   </cc:Work>
  </rdf:RDF>
 </metadata>
 <defs>
  <style type="text/css">*{stroke-linecap:butt;stroke-linejoin:round;}</style>
 </defs>
 <g id="figure_1">
  <g id="patch_1">
   <path d="M 0 288 
L 432 288 
L 432 0 
L 0 0 
z
" style="fill:#ffffff;"/>
  </g>
  <g id="axes_1">
   <g id="patch_2">
    <path d="M 54 252 
L 388.8 252 
L 388.8 34.56 
L 54 34.56 
z
" style="fill:#ffffff;"/>
   </g>
   <g id="PathCollection_1">
    <defs>
     <path d="M 0 3.162278 
C 0.838646 3.162278 1.643056 2.82908 2.236068 2.236068 
C 2.82908 1.643056 3.162278 0.838646 3.162278 0 
C 3.162278 -0.838646 2.82908 -1.643056 2.236068 -2.236068 
C 1.643056 -2.82908 0.838646 -3.162278 0 -3.162278 
C -0.838646 -3.162278 -1.643056 -2.82908 -2.236068 -2.236068 
C -2.82908 -1.643056 -3.162278 -0.838646 -3.162278 0 
C -3.162278 0.838646 -2.82908 1.643056 -2.236068 2.236068 
C -1.643056 2.82908 -0.838646 3.162278 0 3.162278 
z
" id="m6585bd1ec5" style="stroke:#ff0000;"/>
    </defs>
    <g clip-path="url(#pd1211de4bb)">
     <use style="fill:#ff0000;stroke:#ff0000;" x="137.7" xlink:href="#m6585bd1ec5" y="99.792"/>
    </g>
   </g>
   <g id="matplotlib.axis_1">
    <g id="xtick_1">
     <g id="line2d_1">
      <path clip-path="url(#pd1211de4bb)" d="M 54 252 
L 54 34.56 
" style="fill:none;stroke:#b0b0b0;stroke-linecap:square;stroke-width:0.8;"/>
     </g>
     <g id="line2d_2">
      <defs>
       <path d="M 0 0 
L 0 3.5 
" id="m1eb10df3cc" style="stroke:#000000;stroke-width:0.8;"/>
      </defs>
      <g>
       <use style="stroke:#000000;stroke-width:0.8;" x="54" xlink:href="#m1eb10df3cc" y="252"/>
      </g>
     </g>
     <g id="text_1">
      <!-- $\mathdefault{0.0}$ -->
      <g transform="translate(47.634961 265.918498)scale(0.1 -0.1)">
       <defs>
        <path d="M 42 31.640625 
C 42 37.75 41.90625 48.125 37.703125 56.109375 
C 34 63.109375 28.09375 65.59375 22.90625 65.59375 
C 18.09375 65.59375 12 63.40625 8.203125 56.203125 
C 4.203125 48.71875 3.796875 39.4375 3.796875 31.640625 
C 3.796875 25.953125 3.90625 17.28125 7 9.671875 
C 11.296875 -0.609375 19 -2 22.90625 -2 
C 27.5 -2 34.5 -0.109375 38.59375 9.375 
C 41.59375 16.28125 42 24.359375 42 31.640625 
z
M 22.90625 -0.40625 
C 16.5 -0.40625 12.703125 5.078125 11.296875 12.6875 
C 10.203125 18.5625 10.203125 27.15625 10.203125 32.75 
C 10.203125 40.4375 10.203125 46.828125 11.5 52.921875 
C 13.40625 61.390625 19 64 22.90625 64 
C 27 64 32.296875 61.296875 34.203125 53.125 
C 35.5 47.4375 35.59375 40.734375 35.59375 32.75 
C 35.59375 26.25 35.59375 18.265625 34.40625 12.375 
C 32.296875 1.484375 26.40625 -0.40625 22.90625 -0.40625 
z
" id="CMR17-48"/>
        <path d="M 18.40625 4.796875 
C 18.40625 7.6875 16 9.671875 13.59375 9.671875 
C 10.703125 9.671875 8.703125 7.28125 8.703125 4.890625 
C 8.703125 2 11.09375 0 13.5 0 
C 16.40625 0 18.40625 2.390625 18.40625 4.796875 
z
" id="CMMI12-58"/>
       </defs>
       <use transform="scale(0.996264)" xlink:href="#CMR17-48"/>
       <use transform="translate(45.690477 0)scale(0.996264)" xlink:href="#CMMI12-58"/>
       <use transform="translate(72.787654 0)scale(0.996264)" xlink:href="#CMR17-48"/>
      </g>
     </g>
    </g>
    <g id="xtick_2">
     <g id="line2d_3">
      <path clip-path="url(#pd1211de4bb)" d="M 107.285075 252 
L 107.285075 34.56 
" style="fill:none;stroke:#b0b0b0;stroke-linecap:square;stroke-width:0.8;"/>
     </g>
     <g id="line2d_4">
      <g>
       <use style="stroke:#000000;stroke-width:0.8;" x="107.285075" xlink:href="#m1eb10df3cc" y="252"/>
      </g>
     </g>
     <g id="text_2">
      <!-- $\mathdefault{0.5}$ -->
      <g transform="translate(100.920035 265.918498)scale(0.1 -0.1)">
       <defs>
        <path d="M 11.40625 57.6875 
C 12.40625 57.28125 16.5 56 20.703125 56 
C 30 56 35.09375 61.109375 38 64.0625 
C 38 64.953125 38 65.5 37.40625 65.5 
C 37.296875 65.5 37.09375 65.5 36.296875 65.046875 
C 32.796875 63.40625 28.703125 62.078125 23.703125 62.078125 
C 20.703125 62.078125 16.203125 62.484375 11.296875 64.671875 
C 10.203125 65.171875 10 65.171875 9.90625 65.171875 
C 9.40625 65.171875 9.296875 65.0625 9.296875 63.078125 
L 9.296875 34.421875 
C 9.296875 32.640625 9.296875 32.140625 10.296875 32.140625 
C 10.796875 32.140625 11 32.34375 11.5 33.03125 
C 14.703125 37.515625 19.09375 39.40625 24.09375 39.40625 
C 27.59375 39.40625 35.09375 37.21875 35.09375 20.140625 
C 35.09375 16.953125 35.09375 11.171875 32.09375 6.578125 
C 29.59375 2.484375 25.703125 0.390625 21.40625 0.390625 
C 14.796875 0.390625 8.09375 5 6.296875 12.71875 
C 6.703125 12.609375 7.5 12.421875 7.90625 12.421875 
C 9.203125 12.421875 11.703125 13.125 11.703125 16.21875 
C 11.703125 18.90625 9.796875 20 7.90625 20 
C 5.59375 20 4.09375 18.59375 4.09375 15.796875 
C 4.09375 7.09375 11 -2 21.59375 -2 
C 31.90625 -2 41.703125 6.875 41.703125 19.75 
C 41.703125 31.71875 33.90625 41 24.203125 41 
C 19.09375 41 14.796875 39.109375 11.40625 35.53125 
z
" id="CMR17-53"/>
       </defs>
       <use transform="scale(0.996264)" xlink:href="#CMR17-48"/>
       <use transform="translate(45.690477 0)scale(0.996264)" xlink:href="#CMMI12-58"/>
       <use transform="translate(72.787654 0)scale(0.996264)" xlink:href="#CMR17-53"/>
      </g>
     </g>
    </g>
    <g id="xtick_3">
     <g id="line2d_5">
      <path clip-path="url(#pd1211de4bb)" d="M 160.57015 252 
L 160.57015 34.56 
" style="fill:none;stroke:#b0b0b0;stroke-linecap:square;stroke-width:0.8;"/>
     </g>
     <g id="line2d_6">
      <g>
       <use style="stroke:#000000;stroke-width:0.8;" x="160.57015" xlink:href="#m1eb10df3cc" y="252"/>
      </g>
     </g>
     <g id="text_3">
      <!-- $\mathdefault{1.0}$ -->
      <g transform="translate(154.20511 265.918498)scale(0.1 -0.1)">
       <defs>
        <path d="M 26.59375 63.40625 
C 26.59375 65.5 26.5 65.5 25.09375 65.5 
C 21.203125 61.1875 15.296875 59.796875 9.703125 59.796875 
C 9.40625 59.796875 8.90625 59.796875 8.796875 59.5 
C 8.703125 59.296875 8.703125 59.09375 8.703125 57 
C 11.796875 57 17 57.59375 21 59.984375 
L 21 7.203125 
C 21 3.6875 20.796875 2.5 12.203125 2.5 
L 9.203125 2.5 
L 9.203125 0 
C 14 0 19 0 23.796875 0 
C 28.59375 0 33.59375 0 38.40625 0 
L 38.40625 2.5 
L 35.40625 2.5 
C 26.796875 2.5 26.59375 3.59375 26.59375 7.15625 
z
" id="CMR17-49"/>
       </defs>
       <use transform="scale(0.996264)" xlink:href="#CMR17-49"/>
       <use transform="translate(45.690477 0)scale(0.996264)" xlink:href="#CMMI12-58"/>
       <use transform="translate(72.787654 0)scale(0.996264)" xlink:href="#CMR17-48"/>
      </g>
     </g>
    </g>
    <g id="xtick_4">
     <g id="line2d_7">
      <path clip-path="url(#pd1211de4bb)" d="M 213.855225 252 
L 213.855225 34.56 
" style="fill:none;stroke:#b0b0b0;stroke-linecap:square;stroke-width:0.8;"/>
     </g>
     <g id="line2d_8">
      <g>
       <use style="stroke:#000000;stroke-width:0.8;" x="213.855225" xlink:href="#m1eb10df3cc" y="252"/>
      </g>
     </g>
     <g id="text_4">
      <!-- $\mathdefault{1.5}$ -->
      <g transform="translate(207.490185 265.918498)scale(0.1 -0.1)">
       <use transform="scale(0.996264)" xlink:href="#CMR17-49"/>
       <use transform="translate(45.690477 0)scale(0.996264)" xlink:href="#CMMI12-58"/>
       <use transform="translate(72.787654 0)scale(0.996264)" xlink:href="#CMR17-53"/>
      </g>
     </g>
    </g>
    <g id="xtick_5">
     <g id="line2d_9">
      <path clip-path="url(#pd1211de4bb)" d="M 267.1403 252 
L 267.1403 34.56 
" style="fill:none;stroke:#b0b0b0;stroke-linecap:square;stroke-width:0.8;"/>
     </g>
     <g id="line2d_10">
      <g>
       <use style="stroke:#000000;stroke-width:0.8;" x="267.1403" xlink:href="#m1eb10df3cc" y="252"/>
      </g>
     </g>
     <g id="text_5">
      <!-- $\mathdefault{2.0}$ -->
      <g transform="translate(260.77526 265.918498)scale(0.1 -0.1)">
       <defs>
        <path d="M 41.703125 15.453125 
L 39.90625 15.453125 
C 38.90625 8.375 38.09375 7.171875 37.703125 6.5625 
C 37.203125 5.765625 30 5.765625 28.59375 5.765625 
L 9.40625 5.765625 
C 13 9.671875 20 16.75 28.5 24.953125 
C 34.59375 30.734375 41.703125 37.53125 41.703125 47.421875 
C 41.703125 59.21875 32.296875 66 21.796875 66 
C 10.796875 66 4.09375 56.3125 4.09375 47.34375 
C 4.09375 43.4375 7 42.9375 8.203125 42.9375 
C 9.203125 42.9375 12.203125 43.546875 12.203125 47.03125 
C 12.203125 50.109375 9.59375 51 8.203125 51 
C 7.59375 51 7 50.90625 6.59375 50.703125 
C 8.5 59.21875 14.296875 63.40625 20.40625 63.40625 
C 29.09375 63.40625 34.796875 56.515625 34.796875 47.421875 
C 34.796875 38.734375 29.703125 31.25 24 24.75 
L 4.09375 2.28125 
L 4.09375 0 
L 39.296875 0 
z
" id="CMR17-50"/>
       </defs>
       <use transform="scale(0.996264)" xlink:href="#CMR17-50"/>
       <use transform="translate(45.690477 0)scale(0.996264)" xlink:href="#CMMI12-58"/>
       <use transform="translate(72.787654 0)scale(0.996264)" xlink:href="#CMR17-48"/>
      </g>
     </g>
    </g>
    <g id="xtick_6">
     <g id="line2d_11">
      <path clip-path="url(#pd1211de4bb)" d="M 320.425375 252 
L 320.425375 34.56 
" style="fill:none;stroke:#b0b0b0;stroke-linecap:square;stroke-width:0.8;"/>
     </g>
     <g id="line2d_12">
      <g>
       <use style="stroke:#000000;stroke-width:0.8;" x="320.425375" xlink:href="#m1eb10df3cc" y="252"/>
      </g>
     </g>
     <g id="text_6">
      <!-- $\mathdefault{2.5}$ -->
      <g transform="translate(314.060335 265.918498)scale(0.1 -0.1)">
       <use transform="scale(0.996264)" xlink:href="#CMR17-50"/>
       <use transform="translate(45.690477 0)scale(0.996264)" xlink:href="#CMMI12-58"/>
       <use transform="translate(72.787654 0)scale(0.996264)" xlink:href="#CMR17-53"/>
      </g>
     </g>
    </g>
    <g id="xtick_7">
     <g id="line2d_13">
      <path clip-path="url(#pd1211de4bb)" d="M 373.71045 252 
L 373.71045 34.56 
" style="fill:none;stroke:#b0b0b0;stroke-linecap:square;stroke-width:0.8;"/>
     </g>
     <g id="line2d_14">
      <g>
       <use style="stroke:#000000;stroke-width:0.8;" x="373.71045" xlink:href="#m1eb10df3cc" y="252"/>
      </g>
     </g>
     <g id="text_7">
      <!-- $\mathdefault{3.0}$ -->
      <g transform="translate(367.34541 265.918498)scale(0.1 -0.1)">
       <defs>
        <path d="M 22.09375 33.703125 
C 31 33.703125 34.90625 25.96875 34.90625 17.03125 
C 34.90625 5 28.5 0.390625 22.703125 0.390625 
C 17.40625 0.390625 8.796875 3.03125 6.09375 10.828125 
C 6.59375 10.625 7.09375 10.625 7.59375 10.625 
C 10 10.625 11.796875 12.21875 11.796875 14.8125 
C 11.796875 17.703125 9.59375 19 7.59375 19 
C 5.90625 19 3.296875 18.203125 3.296875 14.46875 
C 3.296875 5.234375 12.296875 -2 22.90625 -2 
C 34 -2 42.5 6.71875 42.5 16.953125 
C 42.5 26.671875 34.5 33.703125 25 34.796875 
C 32.59375 36.375 39.90625 43.0625 39.90625 52.015625 
C 39.90625 59.6875 32 65.296875 23 65.296875 
C 13.90625 65.296875 5.90625 59.828125 5.90625 52.015625 
C 5.90625 48.59375 8.5 48 9.796875 48 
C 11.90625 48 13.703125 49.296875 13.703125 51.890625 
C 13.703125 54.46875 11.90625 55.765625 9.796875 55.765625 
C 9.40625 55.765625 8.90625 55.765625 8.5 55.578125 
C 11.40625 61.859375 19.296875 63 22.796875 63 
C 26.296875 63 32.90625 61.328125 32.90625 51.875 
C 32.90625 49.109375 32.5 44.1875 29.09375 39.84375 
C 26.09375 36 22.703125 36 19.40625 35.6875 
C 18.90625 35.6875 16.59375 35.453125 16.203125 35.453125 
C 15.5 35.359375 15.09375 35.265625 15.09375 34.5 
C 15.09375 33.796875 15.203125 33.703125 17.203125 33.703125 
z
" id="CMR17-51"/>
       </defs>
       <use transform="scale(0.996264)" xlink:href="#CMR17-51"/>
       <use transform="translate(45.690477 0)scale(0.996264)" xlink:href="#CMMI12-58"/>
       <use transform="translate(72.787654 0)scale(0.996264)" xlink:href="#CMR17-48"/>
      </g>
     </g>
    </g>
    <g id="text_8">
     <!-- $\varphi$ -->
     <g transform="translate(218.141384 278.774175)scale(0.1 -0.1)">
      <defs>
       <path d="M 30.09375 4.375 
C 28.40625 4.375 26.90625 4.375 26.90625 4.875 
C 26.90625 5.078125 28.59375 14.46875 29.203125 16.671875 
C 32.40625 29.4375 40 38.625 48.703125 38.625 
C 55.203125 38.625 58.203125 33.734375 58.203125 28.25 
C 58.203125 16.875 45.40625 4.375 30.09375 4.375 
z
M 25.796875 -0.796875 
C 26.40625 -0.890625 27.40625 -1 29.203125 -1 
C 45.59375 -1 60.703125 14.765625 60.703125 30.53125 
C 60.703125 36.625 58 44 49.59375 44 
C 35.203125 44 29.09375 23.734375 23.5 4.96875 
C 12 7.15625 7.203125 13.25 7.203125 19.9375 
C 7.203125 22.640625 9.296875 33.328125 15.09375 40.5 
C 16.203125 41.8125 16.203125 42.015625 16.203125 42.21875 
C 16.203125 43.015625 15.40625 43.015625 15.203125 43.015625 
C 12.5 43.015625 4.90625 28.4375 4.90625 18.953125 
C 4.90625 7.765625 13.703125 1.671875 21.796875 -0.109375 
L 16.59375 -17 
C 16.09375 -18.5 16.09375 -18.6875 16.09375 -19.09375 
C 16.09375 -21.5 18.5 -21.5 18.703125 -21.5 
C 19.703125 -21.5 21.5 -21.109375 22.296875 -19.109375 
C 22.59375 -18.21875 25.40625 -2.78125 25.796875 -0.796875 
z
" id="CMMI12-39"/>
      </defs>
      <use transform="scale(0.996264)" xlink:href="#CMMI12-39"/>
     </g>
    </g>
   </g>
   <g id="matplotlib.axis_2">
    <g id="ytick_1">
     <g id="line2d_15">
      <path clip-path="url(#pd1211de4bb)" d="M 54 230.256 
L 388.8 230.256 
" style="fill:none;stroke:#b0b0b0;stroke-linecap:square;stroke-width:0.8;"/>
     </g>
     <g id="line2d_16">
      <defs>
       <path d="M 0 0 
L -3.5 0 
" id="md0c46b94ec" style="stroke:#000000;stroke-width:0.8;"/>
      </defs>
      <g>
       <use style="stroke:#000000;stroke-width:0.8;" x="54" xlink:href="#md0c46b94ec" y="230.256"/>
      </g>
     </g>
     <g id="text_9">
      <!-- $\mathdefault{−2}$ -->
      <g transform="translate(34.269921 233.715249)scale(0.1 -0.1)">
       <defs>
        <path d="M 65.90625 23 
C 67.59375 23 69.40625 23 69.40625 25 
C 69.40625 27 67.59375 27 65.90625 27 
L 11.796875 27 
C 10.09375 27 8.296875 27 8.296875 25 
C 8.296875 23 10.09375 23 11.796875 23 
z
" id="CMSY10-0"/>
       </defs>
       <use transform="scale(0.996264)" xlink:href="#CMSY10-0"/>
       <use transform="translate(77.487468 0)scale(0.996264)" xlink:href="#CMR17-50"/>
      </g>
     </g>
    </g>
    <g id="ytick_2">
     <g id="line2d_17">
      <path clip-path="url(#pd1211de4bb)" d="M 54 186.768 
L 388.8 186.768 
" style="fill:none;stroke:#b0b0b0;stroke-linecap:square;stroke-width:0.8;"/>
     </g>
     <g id="line2d_18">
      <g>
       <use style="stroke:#000000;stroke-width:0.8;" x="54" xlink:href="#md0c46b94ec" y="186.768"/>
      </g>
     </g>
     <g id="text_10">
      <!-- $\mathdefault{−1}$ -->
      <g transform="translate(34.269921 190.227249)scale(0.1 -0.1)">
       <use transform="scale(0.996264)" xlink:href="#CMSY10-0"/>
       <use transform="translate(77.487468 0)scale(0.996264)" xlink:href="#CMR17-49"/>
      </g>
     </g>
    </g>
    <g id="ytick_3">
     <g id="line2d_19">
      <path clip-path="url(#pd1211de4bb)" d="M 54 143.28 
L 388.8 143.28 
" style="fill:none;stroke:#b0b0b0;stroke-linecap:square;stroke-width:0.8;"/>
     </g>
     <g id="line2d_20">
      <g>
       <use style="stroke:#000000;stroke-width:0.8;" x="54" xlink:href="#md0c46b94ec" y="143.28"/>
      </g>
     </g>
     <g id="text_11">
      <!-- $\mathdefault{0}$ -->
      <g transform="translate(42.018665 146.739249)scale(0.1 -0.1)">
       <use transform="scale(0.996264)" xlink:href="#CMR17-48"/>
      </g>
     </g>
    </g>
    <g id="ytick_4">
     <g id="line2d_21">
      <path clip-path="url(#pd1211de4bb)" d="M 54 99.792 
L 388.8 99.792 
" style="fill:none;stroke:#b0b0b0;stroke-linecap:square;stroke-width:0.8;"/>
     </g>
     <g id="line2d_22">
      <g>
       <use style="stroke:#000000;stroke-width:0.8;" x="54" xlink:href="#md0c46b94ec" y="99.792"/>
      </g>
     </g>
     <g id="text_12">
      <!-- $\mathdefault{1}$ -->
      <g transform="translate(42.018665 103.251249)scale(0.1 -0.1)">
       <use transform="scale(0.996264)" xlink:href="#CMR17-49"/>
      </g>
     </g>
    </g>
    <g id="ytick_5">
     <g id="line2d_23">
      <path clip-path="url(#pd1211de4bb)" d="M 54 56.304 
L 388.8 56.304 
" style="fill:none;stroke:#b0b0b0;stroke-linecap:square;stroke-width:0.8;"/>
     </g>
     <g id="line2d_24">
      <g>
       <use style="stroke:#000000;stroke-width:0.8;" x="54" xlink:href="#md0c46b94ec" y="56.304"/>
      </g>
     </g>
     <g id="text_13">
      <!-- $\mathdefault{2}$ -->
      <g transform="translate(42.018665 59.763249)scale(0.1 -0.1)">
       <use transform="scale(0.996264)" xlink:href="#CMR17-50"/>
      </g>
     </g>
    </g>
   </g>
   <g id="LineCollection_1">
    <path clip-path="url(#pd1211de4bb)" d="M 137.7 143.28 
L 137.7 99.792 
" style="fill:none;stroke:#000000;stroke-dasharray:9.6,2.4,1.5,2.4;stroke-dashoffset:0;stroke-width:1.5;"/>
   </g>
   <g id="line2d_25">
    <path clip-path="url(#pd1211de4bb)" d="M 54 143.28 
L 57.381818 140.521821 
L 60.763636 137.774747 
L 64.145455 135.049842 
L 67.527273 132.358076 
L 70.909091 129.71029 
L 74.290909 127.117143 
L 77.672727 124.589079 
L 81.054545 122.136276 
L 84.436364 119.768612 
L 87.818182 117.49562 
L 91.2 115.326452 
L 94.581818 113.269844 
L 97.963636 111.334076 
L 101.345455 109.526943 
L 104.727273 107.855721 
L 108.109091 106.327141 
L 111.490909 104.947356 
L 114.872727 103.721924 
L 118.254545 102.655778 
L 121.636364 101.753211 
L 125.018182 101.017859 
L 128.4 100.45268 
L 131.781818 100.059953 
L 135.163636 99.841257 
L 138.545455 99.797474 
L 141.927273 99.92878 
L 145.309091 100.234645 
L 148.690909 100.713839 
L 152.072727 101.364432 
L 155.454545 102.183804 
L 158.836364 103.168656 
L 162.218182 104.315023 
L 165.6 105.618287 
L 168.981818 107.073202 
L 172.363636 108.673909 
L 175.745455 110.413963 
L 179.127273 112.286356 
L 182.509091 114.28355 
L 185.890909 116.397502 
L 189.272727 118.619701 
L 192.654545 120.941198 
L 196.036364 123.352645 
L 199.418182 125.844333 
L 202.8 128.406228 
L 206.181818 131.028015 
L 209.563636 133.699136 
L 212.945455 136.408835 
L 216.327273 139.146203 
L 219.709091 141.900216 
L 223.090909 144.659784 
L 226.472727 147.413797 
L 229.854545 150.151165 
L 233.236364 152.860864 
L 236.618182 155.531985 
L 240 158.153772 
L 243.381818 160.715667 
L 246.763636 163.207355 
L 250.145455 165.618802 
L 253.527273 167.940299 
L 256.909091 170.162498 
L 260.290909 172.27645 
L 263.672727 174.273644 
L 267.054545 176.146037 
L 270.436364 177.886091 
L 273.818182 179.486798 
L 277.2 180.941713 
L 280.581818 182.244977 
L 283.963636 183.391344 
L 287.345455 184.376196 
L 290.727273 185.195568 
L 294.109091 185.846161 
L 297.490909 186.325355 
L 300.872727 186.63122 
L 304.254545 186.762526 
L 307.636364 186.718743 
L 311.018182 186.500047 
L 314.4 186.10732 
L 317.781818 185.542141 
L 321.163636 184.806789 
L 324.545455 183.904222 
L 327.927273 182.838076 
L 331.309091 181.612644 
L 334.690909 180.232859 
L 338.072727 178.704279 
L 341.454545 177.033057 
L 344.836364 175.225924 
L 348.218182 173.290156 
L 351.6 171.233548 
L 354.981818 169.06438 
L 358.363636 166.791388 
L 361.745455 164.423724 
L 365.127273 161.970921 
L 368.509091 159.442857 
L 371.890909 156.84971 
L 375.272727 154.201924 
L 378.654545 151.510158 
L 382.036364 148.785253 
L 385.418182 146.038179 
L 388.8 143.28 
" style="fill:none;stroke:#1f77b4;stroke-linecap:square;stroke-width:1.5;"/>
   </g>
   <g id="line2d_26">
    <path clip-path="url(#pd1211de4bb)" d="M 54 56.304 
L 57.381818 56.479111 
L 60.763636 57.003738 
L 64.145455 57.87577 
L 67.527273 59.091694 
L 70.909091 60.646614 
L 74.290909 62.534271 
L 77.672727 64.747061 
L 81.054545 67.276077 
L 84.436364 70.111133 
L 87.818182 73.240814 
L 91.2 76.652519 
L 94.581818 80.332508 
L 97.963636 84.265965 
L 101.345455 88.437051 
L 104.727273 92.82897 
L 108.109091 97.424038 
L 111.490909 102.203751 
L 114.872727 107.148864 
L 118.254545 112.239464 
L 121.636364 117.455053 
L 125.018182 122.774631 
L 128.4 128.176776 
L 131.781818 133.639737 
L 135.163636 139.141515 
L 138.545455 144.659958 
L 141.927273 150.172844 
L 145.309091 155.657975 
L 148.690909 161.093265 
L 152.072727 166.456826 
L 155.454545 171.727063 
L 158.836364 176.882754 
L 162.218182 181.903138 
L 165.6 186.768 
L 168.981818 191.457751 
L 172.363636 195.953508 
L 175.745455 200.237167 
L 179.127273 204.29148 
L 182.509091 208.100121 
L 185.890909 211.647754 
L 189.272727 214.920094 
L 192.654545 217.903965 
L 196.036364 220.587352 
L 199.418182 222.959449 
L 202.8 225.010705 
L 206.181818 226.732861 
L 209.563636 228.118981 
L 212.945455 229.163485 
L 216.327273 229.862166 
L 219.709091 230.212211 
L 223.090909 230.212211 
L 226.472727 229.862166 
L 229.854545 229.163485 
L 233.236364 228.118981 
L 236.618182 226.732861 
L 240 225.010705 
L 243.381818 222.959449 
L 246.763636 220.587352 
L 250.145455 217.903965 
L 253.527273 214.920094 
L 256.909091 211.647754 
L 260.290909 208.100121 
L 263.672727 204.29148 
L 267.054545 200.237167 
L 270.436364 195.953508 
L 273.818182 191.457751 
L 277.2 186.768 
L 280.581818 181.903138 
L 283.963636 176.882754 
L 287.345455 171.727063 
L 290.727273 166.456826 
L 294.109091 161.093265 
L 297.490909 155.657975 
L 300.872727 150.172844 
L 304.254545 144.659958 
L 307.636364 139.141515 
L 311.018182 133.639737 
L 314.4 128.176776 
L 317.781818 122.774631 
L 321.163636 117.455053 
L 324.545455 112.239464 
L 327.927273 107.148864 
L 331.309091 102.203751 
L 334.690909 97.424038 
L 338.072727 92.82897 
L 341.454545 88.437051 
L 344.836364 84.265965 
L 348.218182 80.332508 
L 351.6 76.652519 
L 354.981818 73.240814 
L 358.363636 70.111133 
L 361.745455 67.276077 
L 365.127273 64.747061 
L 368.509091 62.534271 
L 371.890909 60.646614 
L 375.272727 59.091694 
L 378.654545 57.87577 
L 382.036364 57.003738 
L 385.418182 56.479111 
L 388.8 56.304 
" style="fill:none;stroke:#ff7f0e;stroke-dasharray:5.55,2.4;stroke-dashoffset:0;stroke-width:1.5;"/>
   </g>
   <g id="line2d_27">
    <path clip-path="url(#pd1211de4bb)" d="M -1 143.28 
L 1.253158 143.28 
L 6.635489 143.28 
L 12.01782 143.28 
L 17.400151 143.28 
L 22.782481 143.28 
L 28.164812 143.28 
L 33.547143 143.28 
L 38.929474 143.28 
L 44.311805 143.28 
L 49.694135 143.28 
L 55.076466 143.28 
L 60.458797 143.28 
L 65.841128 143.28 
L 71.223459 143.28 
L 76.605789 143.28 
L 81.98812 143.28 
L 87.370451 143.28 
L 92.752782 143.28 
L 98.135113 143.28 
L 103.517443 143.28 
L 108.899774 143.28 
L 114.282105 143.28 
L 119.664436 143.28 
L 125.046767 143.28 
L 130.429097 143.28 
L 135.811428 143.28 
L 141.193759 143.28 
L 146.57609 143.28 
L 151.958421 143.28 
L 157.340751 143.28 
L 162.723082 143.28 
L 168.105413 143.28 
L 173.487744 143.28 
L 178.870075 143.28 
L 184.252405 143.28 
L 189.634736 143.28 
L 195.017067 143.28 
L 200.399398 143.28 
L 205.781729 143.28 
L 211.164059 143.28 
L 216.54639 143.28 
L 221.928721 143.28 
L 227.311052 143.28 
L 232.693383 143.28 
L 238.075713 143.28 
L 243.458044 143.28 
L 248.840375 143.28 
L 254.222706 143.28 
L 259.605037 143.28 
L 264.987367 143.28 
L 270.369698 143.28 
L 275.752029 143.28 
L 281.13436 143.28 
L 286.516691 143.28 
L 291.899021 143.28 
L 297.281352 143.28 
L 302.663683 143.28 
L 308.046014 143.28 
L 313.428345 143.28 
L 318.810675 143.28 
L 324.193006 143.28 
L 329.575337 143.28 
L 334.957668 143.28 
L 340.339999 143.28 
L 345.72233 143.28 
L 351.10466 143.28 
L 356.486991 143.28 
L 361.869322 143.28 
L 367.251653 143.28 
L 372.633984 143.28 
L 378.016314 143.28 
L 383.398645 143.28 
L 388.780976 143.28 
L 394.163307 143.28 
L 399.545638 143.28 
L 404.927968 143.28 
L 410.310299 143.28 
L 415.69263 143.28 
L 421.074961 143.28 
L 426.457292 143.28 
L 431.839622 143.28 
L 433 143.28 
" style="fill:none;stroke:#000000;stroke-linecap:square;stroke-width:1.5;"/>
   </g>
   <g id="patch_3">
    <path d="M 54 252 
L 54 34.56 
" style="fill:none;stroke:#000000;stroke-linecap:square;stroke-linejoin:miter;stroke-width:0.8;"/>
   </g>
   <g id="patch_4">
    <path d="M 388.8 252 
L 388.8 34.56 
" style="fill:none;stroke:#000000;stroke-linecap:square;stroke-linejoin:miter;stroke-width:0.8;"/>
   </g>
   <g id="patch_5">
    <path d="M 54 252 
L 388.8 252 
" style="fill:none;stroke:#000000;stroke-linecap:square;stroke-linejoin:miter;stroke-width:0.8;"/>
   </g>
   <g id="patch_6">
    <path d="M 54 34.56 
L 388.8 34.56 
" style="fill:none;stroke:#000000;stroke-linecap:square;stroke-linejoin:miter;stroke-width:0.8;"/>
   </g>
   <g id="text_14">
    <!-- $\varphi_0$ -->
    <g transform="translate(133.515 160.6752)scale(0.2 -0.2)">
     <use transform="scale(0.996264)" xlink:href="#CMMI12-39"/>
     <use transform="translate(63.903064 -14.943915)scale(0.697382)" xlink:href="#CMR17-48"/>
    </g>
   </g>
   <g id="legend_1">
    <g id="patch_7">
     <path d="M 61 247 
L 116.010999 247 
Q 118.010999 247 118.010999 245 
L 118.010999 215.821805 
Q 118.010999 213.821805 116.010999 213.821805 
L 61 213.821805 
Q 59 213.821805 59 215.821805 
L 59 245 
Q 59 247 61 247 
z
" style="fill:#ffffff;opacity:0.8;stroke:#cccccc;stroke-linejoin:miter;"/>
    </g>
    <g id="line2d_28">
     <path d="M 63 221.920242 
L 83 221.920242 
" style="fill:none;stroke:#1f77b4;stroke-linecap:square;stroke-width:1.5;"/>
    </g>
    <g id="line2d_29"/>
    <g id="text_15">
     <!-- $f(\varphi)$ -->
     <g transform="translate(91 225.420242)scale(0.1 -0.1)">
      <defs>
       <path d="M 44.59375 40.09375 
C 46.59375 40.09375 47.40625 40.09375 47.40625 42 
C 47.40625 43 46.59375 43 44.796875 43 
L 36.703125 43 
C 38.59375 53.578125 40 60.890625 40.796875 64.171875 
C 41.40625 66.640625 43.5 69 46.09375 69 
C 48.203125 69 50.296875 68.09375 51.296875 67.15625 
C 47.40625 66.75 46.203125 63.78125 46.203125 62.015625 
C 46.203125 59.953125 47.703125 58.734375 49.59375 58.734375 
C 51.59375 58.734375 54.59375 60.46875 54.59375 64.359375 
C 54.59375 68.640625 50.40625 71 46 71 
C 41.703125 71 37.5 67.71875 35.5 63.71875 
C 33.703125 60.125 32.703125 56.421875 30.40625 43 
L 23.703125 43 
C 21.796875 43 20.796875 43 20.796875 41.203125 
C 20.796875 40.09375 21.40625 40.09375 23.40625 40.09375 
L 29.796875 40.09375 
C 28 30.875 23.90625 8.46875 21.59375 -2.140625 
C 19.90625 -10.765625 18.40625 -18 13.40625 -18 
C 13.09375 -18 10.203125 -18 8.40625 -16.109375 
C 13.5 -15.703125 13.5 -11.34375 13.5 -11.25 
C 13.5 -9.265625 12 -8.078125 10.09375 -8.078125 
C 8.09375 -8.078125 5.09375 -9.765625 5.09375 -13.546875 
C 5.09375 -17.8125 9.5 -20 13.40625 -20 
C 23.59375 -20 27.796875 -1.84375 28.90625 3.109375 
C 30.703125 10.75 35.59375 37.125 36.09375 40.09375 
z
" id="CMMI12-102"/>
       <path d="M 30.59375 -24.390625 
C 30.59375 -24.296875 30.59375 -24.09375 30.296875 -23.796875 
C 25.703125 -19.125 13.40625 -6.359375 13.40625 24.703125 
C 13.40625 55.765625 25.5 68.421875 30.40625 73.390625 
C 30.40625 73.5 30.59375 73.703125 30.59375 74 
C 30.59375 74.296875 30.296875 74.5 29.90625 74.5 
C 28.796875 74.5 20.296875 67.125 15.40625 56.15625 
C 10.40625 45.109375 9 34.359375 9 24.8125 
C 9 17.625 9.703125 5.484375 15.703125 -7.359375 
C 20.5 -17.734375 28.703125 -25 29.90625 -25 
C 30.40625 -25 30.59375 -24.796875 30.59375 -24.390625 
z
" id="CMR17-40"/>
       <path d="M 26.296875 24.703125 
C 26.296875 31.875 25.59375 44.015625 19.59375 56.859375 
C 14.796875 67.234375 6.59375 74.5 5.40625 74.5 
C 5.09375 74.5 4.703125 74.390625 4.703125 73.890625 
C 4.703125 73.703125 4.796875 73.59375 4.90625 73.390625 
C 9.703125 68.40625 21.90625 55.75 21.90625 24.75 
C 21.90625 -6.359375 9.796875 -19.015625 4.90625 -24.015625 
C 4.796875 -24.203125 4.703125 -24.3125 4.703125 -24.5 
C 4.703125 -25 5.09375 -25 5.40625 -25 
C 6.5 -25 15 -17.625 19.90625 -6.65625 
C 24.90625 4.390625 26.296875 15.140625 26.296875 24.703125 
z
" id="CMR17-41"/>
      </defs>
      <use transform="scale(0.996264)" xlink:href="#CMMI12-102"/>
      <use transform="translate(58.720305 0)scale(0.996264)" xlink:href="#CMR17-40"/>
      <use transform="translate(94.001073 0)scale(0.996264)" xlink:href="#CMMI12-39"/>
      <use transform="translate(157.904136 0)scale(0.996264)" xlink:href="#CMR17-41"/>
     </g>
    </g>
    <g id="line2d_30">
     <path d="M 63 237.00934 
L 83 237.00934 
" style="fill:none;stroke:#ff7f0e;stroke-dasharray:5.55,2.4;stroke-dashoffset:0;stroke-width:1.5;"/>
    </g>
    <g id="line2d_31"/>
    <g id="text_16">
     <!-- $f'(\varphi)$ -->
     <g transform="translate(91 240.50934)scale(0.1 -0.1)">
      <defs>
       <path d="M 25.296875 47.5 
C 25.796875 48.703125 26.203125 49.59375 26.203125 50.59375 
C 26.203125 53.5 23.59375 55.90625 20.5 55.90625 
C 17.703125 55.90625 15.90625 54 15.203125 51.40625 
L 3.296875 7.703125 
C 3.296875 7.5 2.90625 6.40625 2.90625 6.296875 
C 2.90625 5.203125 5.5 4.5 6.296875 4.5 
C 6.90625 4.5 7 4.796875 7.59375 6.09375 
z
" id="CMSY10-48"/>
      </defs>
      <use transform="scale(0.996264)" xlink:href="#CMMI12-102"/>
      <use transform="translate(58.720305 36.153639)scale(0.697382)" xlink:href="#CMSY10-48"/>
      <use transform="translate(78.396397 0)scale(0.996264)" xlink:href="#CMR17-40"/>
      <use transform="translate(113.677165 0)scale(0.996264)" xlink:href="#CMMI12-39"/>
      <use transform="translate(177.580229 0)scale(0.996264)" xlink:href="#CMR17-41"/>
     </g>
    </g>
   </g>
  </g>
 </g>
 <defs>
  <clipPath id="pd1211de4bb">
   <rect height="217.44" width="334.8" x="54" y="34.56"/>
  </clipPath>
 </defs>
</svg>
